<svg xmlns="http://www.w3.org/2000/svg" width="1124.4208984375" height="578.0693359375" viewBox="-227.13934326171875 -258.60296630859375 1124.4208984375 578.0693359375"><title>Neo4j Graph Visualization</title><desc>Created using Neo4j (http://www.neo4j.com/)</desc><g class="layer relationships"><g class="relationship" transform="translate(150.23638492138505 19.30436460685108) rotate(202.23669450137163)"><path class="outline" fill="#A5ABB6" stroke="none" d="M 32.5 0.5 L 147.80784039178096 0.5 L 147.80784039178096 -0.5 L 32.5 -0.5 Z M 213.45627789178096 0.5 L 328.7641182835619 0.5 L 328.7641182835619 3.5 L 335.7641182835619 0 L 328.7641182835619 -3.5 L 328.7641182835619 -0.5 L 213.45627789178096 -0.5 Z"/><text text-anchor="middle" pointer-events="none" font-size="8px" fill="#000000" x="180.63205914178096" y="3" transform="rotate(180 180.63205914178096 0)" font-family="sans-serif">acompany_with</text></g><g class="relationship" transform="translate(150.23638492138505 19.30436460685108) rotate(527.3130262210358)"><path class="outline" fill="#A5ABB6" stroke="none" d="M 31.26317983184346,-8.894581878976458 L 31.52199887694598,-7.92865605268739 A 239.46805554642842 239.46805554642842 0 0 1 56.90963512657437,-13.276207301286377 L 56.756832878541914,-14.264464086234625 A 240.46805554642842 240.46805554642842 0 0 0 31.26317983184346,-8.894581878976458 Z M 130.57498379857722,-14.213200516323951 L 130.42080909388181,-13.225156913828556 A 239.46805554642842 239.46805554642842 0 0 1 155.80099356530945,-7.842349570430284 L 155.02051241415398,-4.945653319062005 L 162.690031677028,-6.504009592962234 L 156.8416351001834,-11.704611238921322 L 156.06115394902793,-8.807914987553044 A 240.46805554642842 240.46805554642842 0 0 0 130.57498379857722,-14.213200516323951"/><text text-anchor="middle" pointer-events="none" font-size="8px" fill="#000000" x="93.66753992622742" y="-13.588274310769918" transform="rotate(180 93.66753992622742 -16.58827431076992)" font-family="sans-serif">recommand_drug</text></g><g class="relationship" transform="translate(150.23638492138505 19.30436460685108) rotate(527.3130262210358)"><path class="outline" fill="#A5ABB6" stroke="none" d="M 31.26317983184346,8.894581878976458 L 31.52199887694598,7.92865605268739 A 239.46805554642842 239.46805554642842 0 0 0 62.86083795761971,14.120038090652685 L 62.7328874703679,15.111818647435285 A 240.46805554642842 240.46805554642842 0 0 1 31.26317983184346,8.894581878976458 Z M 124.60011187383134,15.06885448829749 L 124.47078401172868,14.077252600398936 A 239.46805554642842 239.46805554642842 0 0 0 155.80099356530945,7.842349570430284 L 155.02051241415398,4.945653319062005 L 162.690031677028,6.504009592962234 L 156.8416351001834,11.704611238921322 L 156.06115394902793,8.807914987553044 A 240.46805554642842 240.46805554642842 0 0 1 124.60011187383134,15.06885448829749"/><text text-anchor="middle" pointer-events="none" font-size="8px" fill="#000000" x="93.66753992622746" y="19.58827431076992" transform="rotate(180 93.66753992622746 16.58827431076992)" font-family="sans-serif">common_drug</text></g><g class="relationship" transform="translate(150.23638492138505 19.30436460685108) rotate(510.0935201927439)"><path class="outline" fill="#A5ABB6" stroke="none" d="M 32.5 0.5 L 64.09650404361906 0.5 L 64.09650404361906 -0.5 L 32.5 -0.5 Z M 138.05353529361906 0.5 L 169.65003933723813 0.5 L 169.65003933723813 3.5 L 176.65003933723813 0 L 169.65003933723813 -3.5 L 169.65003933723813 -0.5 L 138.05353529361906 -0.5 Z"/><text text-anchor="middle" pointer-events="none" font-size="8px" fill="#000000" x="101.07501966861906" y="3" transform="rotate(180 101.07501966861906 0)" font-family="sans-serif">recommand_drug</text></g><g class="relationship" transform="translate(150.23638492138505 19.30436460685108) rotate(211.20824182375247)"><path class="outline" fill="#A5ABB6" stroke="none" d="M 32.5 0.5 L 92.18261961312356 0.5 L 92.18261961312356 -0.5 L 32.5 -0.5 Z M 166.13965086312356 0.5 L 225.82227047624713 0.5 L 225.82227047624713 3.5 L 232.82227047624713 0 L 225.82227047624713 -3.5 L 225.82227047624713 -0.5 L 166.13965086312356 -0.5 Z"/><text text-anchor="middle" pointer-events="none" font-size="8px" fill="#000000" x="129.16113523812356" y="3" transform="rotate(180 129.16113523812356 0)" font-family="sans-serif">recommand_drug</text></g><g class="relationship" transform="translate(150.23638492138505 19.30436460685108) rotate(193.0362954347944)"><path class="outline" fill="#A5ABB6" stroke="none" d="M 31.26317983184346,8.894581878976458 L 31.52199887694598,7.92865605268739 A 364.2099097227214 364.2099097227214 0 0 0 89.10872562907448,18.48728715525641 L 89.00802069678117,19.48220349174494 A 365.2099097227214 365.2099097227214 0 0 1 31.26317983184346,8.894581878976458 Z M 162.9396090168815,19.44408033742218 L 162.83787807229447,18.449268387899338 A 364.2099097227214 364.2099097227214 0 0 0 220.41368499201354,7.831253209550056 L 219.63423976657364,4.934278038697025 L 227.30320126157724,6.495376878665794 L 221.45294529260005,11.69388677068743 L 220.67350006716015,8.796911599834399 A 365.2099097227214 365.2099097227214 0 0 1 162.9396090168815,19.44408033742218"/><text text-anchor="middle" pointer-events="none" font-size="8px" fill="#000000" x="125.97452420008909" y="23.838759295733723" transform="rotate(180 125.97452420008909 20.838759295733723)" font-family="sans-serif">recommand_drug</text></g><g class="relationship" transform="translate(150.23638492138505 19.30436460685108) rotate(193.0362954347944)"><path class="outline" fill="#A5ABB6" stroke="none" d="M 31.26317983184346,-8.894581878976458 L 31.52199887694598,-7.92865605268739 A 364.2099097227214 364.2099097227214 0 0 1 95.0980562135805,-19.043599082811795 L 95.0137960029288,-20.04004286793014 A 365.2099097227214 365.2099097227214 0 0 0 31.26317983184346,-8.894581878976458 Z M 156.93441220918626,-20.00811322512078 L 156.84912440222456,-19.011756868196358 A 364.2099097227214 364.2099097227214 0 0 1 220.41368499201354,-7.831253209550056 L 219.63423976657364,-4.934278038697025 L 227.30320126157724,-6.495376878665794 L 221.45294529260005,-11.69388677068743 L 220.67350006716015,-8.796911599834399 A 365.2099097227214 365.2099097227214 0 0 0 156.93441220918626,-20.00811322512078"/><text text-anchor="middle" pointer-events="none" font-size="8px" fill="#000000" x="125.97452420008896" y="-17.838759295733723" transform="rotate(180 125.97452420008896 -20.838759295733723)" font-family="sans-serif">common_drug</text></g><g class="relationship" transform="translate(150.23638492138505 19.30436460685108) rotate(499.68164125472043)"><path class="outline" fill="#A5ABB6" stroke="none" d="M 32.5 0.5 L 100.52629610891145 0.5 L 100.52629610891145 -0.5 L 32.5 -0.5 Z M 174.48332735891145 0.5 L 242.5096234678229 0.5 L 242.5096234678229 3.5 L 249.5096234678229 0 L 242.5096234678229 -3.5 L 242.5096234678229 -0.5 L 174.48332735891145 -0.5 Z"/><text text-anchor="middle" pointer-events="none" font-size="8px" fill="#000000" x="137.50481173391145" y="3" transform="rotate(180 137.50481173391145 0)" font-family="sans-serif">recommand_drug</text></g><g class="relationship" transform="translate(150.23638492138505 19.30436460685108) rotate(539.2777772946571)"><path class="outline" fill="#A5ABB6" stroke="none" d="M 32.5 0.5 L 99.41965603711618 0.5 L 99.41965603711618 -0.5 L 32.5 -0.5 Z M 149.97434353711617 0.5 L 216.89399957423237 0.5 L 216.89399957423237 3.5 L 223.89399957423237 0 L 216.89399957423237 -3.5 L 216.89399957423237 -0.5 L 149.97434353711617 -0.5 Z"/><text text-anchor="middle" pointer-events="none" font-size="8px" fill="#000000" x="124.69699978711618" y="3" transform="rotate(180 124.69699978711618 0)" font-family="sans-serif">need_check</text></g><g class="relationship" transform="translate(150.23638492138505 19.30436460685108) rotate(330.6406452316207)"><path class="outline" fill="#A5ABB6" stroke="none" d="M 32.5 0.5 L 138.58853243836487 0.5 L 138.58853243836487 -0.5 L 32.5 -0.5 Z M 189.14321993836487 0.5 L 295.23175237672973 0.5 L 295.23175237672973 3.5 L 302.23175237672973 0 L 295.23175237672973 -3.5 L 295.23175237672973 -0.5 L 189.14321993836487 -0.5 Z"/><text text-anchor="middle" pointer-events="none" font-size="8px" fill="#000000" x="163.86587618836487" y="3" font-family="sans-serif">need_check</text></g><g class="relationship" transform="translate(150.23638492138505 19.30436460685108) rotate(494.39344624584487)"><path class="outline" fill="#A5ABB6" stroke="none" d="M 32.5 0.5 L 84.4751616661644 0.5 L 84.4751616661644 -0.5 L 32.5 -0.5 Z M 135.0298491661644 0.5 L 187.0050108323288 0.5 L 187.0050108323288 3.5 L 194.0050108323288 0 L 187.0050108323288 -3.5 L 187.0050108323288 -0.5 L 135.0298491661644 -0.5 Z"/><text text-anchor="middle" pointer-events="none" font-size="8px" fill="#000000" x="109.7525054161644" y="3" transform="rotate(180 109.7525054161644 0)" font-family="sans-serif">need_check</text></g><g class="relationship" transform="translate(150.23638492138505 19.30436460685108) rotate(370.61998697074023)"><path class="outline" fill="#A5ABB6" stroke="none" d="M 32.5 0.5 L 184.44300498100657 0.5 L 184.44300498100657 -0.5 L 32.5 -0.5 Z M 232.70862998100657 0.5 L 384.65163496201313 0.5 L 384.65163496201313 3.5 L 391.65163496201313 0 L 384.65163496201313 -3.5 L 384.65163496201313 -0.5 L 232.70862998100657 -0.5 Z"/><text text-anchor="middle" pointer-events="none" font-size="8px" fill="#000000" x="208.57581748100657" y="3" font-family="sans-serif">belongs_to</text></g><g class="relationship" transform="translate(150.23638492138505 19.30436460685108) rotate(448.30924821916767)"><path class="outline" fill="#A5ABB6" stroke="none" d="M 32.5 0.5 L 64.8095693231098 0.5 L 64.8095693231098 -0.5 L 32.5 -0.5 Z M 123.5517568231098 0.5 L 155.8613261462196 0.5 L 155.8613261462196 3.5 L 162.8613261462196 0 L 155.8613261462196 -3.5 L 155.8613261462196 -0.5 L 123.5517568231098 -0.5 Z"/><text text-anchor="middle" pointer-events="none" font-size="8px" fill="#000000" x="94.1806630731098" y="3" font-family="sans-serif">has_symptom</text></g><g class="relationship" transform="translate(150.23638492138505 19.30436460685108) rotate(471.40238499893906)"><path class="outline" fill="#A5ABB6" stroke="none" d="M 32.5 0.5 L 104.39003970540199 0.5 L 104.39003970540199 -0.5 L 32.5 -0.5 Z M 163.132227205402 0.5 L 235.02226691080398 0.5 L 235.02226691080398 3.5 L 242.02226691080398 0 L 235.02226691080398 -3.5 L 235.02226691080398 -0.5 L 163.132227205402 -0.5 Z"/><text text-anchor="middle" pointer-events="none" font-size="8px" fill="#000000" x="133.761133455402" y="3" transform="rotate(180 133.761133455402 0)" font-family="sans-serif">has_symptom</text></g><g class="relationship" transform="translate(150.23638492138505 19.30436460685108) rotate(450.4222644211661)"><path class="outline" fill="#A5ABB6" stroke="none" d="M 32.5 0.5 L 33.71309535206368 0.5 L 33.71309535206368 -0.5 L 32.5 -0.5 Z M 92.45528285206368 0.5 L 93.66837820412736 0.5 L 93.66837820412736 3.5 L 100.66837820412736 0 L 93.66837820412736 -3.5 L 93.66837820412736 -0.5 L 92.45528285206368 -0.5 Z"/><text text-anchor="middle" pointer-events="none" font-size="8px" fill="#000000" x="63.08418910206368" y="3" transform="rotate(180 63.08418910206368 0)" font-family="sans-serif">has_symptom</text></g><g class="relationship" transform="translate(150.23638492138505 19.30436460685108) rotate(386.41939831656634)"><path class="outline" fill="#A5ABB6" stroke="none" d="M 32.5 0.5 L 140.6502212403715 0.5 L 140.6502212403715 -0.5 L 32.5 -0.5 Z M 199.3924087403715 0.5 L 307.542629980743 0.5 L 307.542629980743 3.5 L 314.542629980743 0 L 307.542629980743 -3.5 L 307.542629980743 -0.5 L 199.3924087403715 -0.5 Z"/><text text-anchor="middle" pointer-events="none" font-size="8px" fill="#000000" x="170.0213149903715" y="3" font-family="sans-serif">has_symptom</text></g><g class="relationship" transform="translate(150.23638492138505 19.30436460685108) rotate(462.70779454629576)"><path class="outline" fill="#A5ABB6" stroke="none" d="M 32.5 0.5 L 80.66128093804811 0.5 L 80.66128093804811 -0.5 L 32.5 -0.5 Z M 139.4034684380481 0.5 L 187.56474937609622 0.5 L 187.56474937609622 3.5 L 194.56474937609622 0 L 187.56474937609622 -3.5 L 187.56474937609622 -0.5 L 139.4034684380481 -0.5 Z"/><text text-anchor="middle" pointer-events="none" font-size="8px" fill="#000000" x="110.03237468804811" y="3" transform="rotate(180 110.03237468804811 0)" font-family="sans-serif">has_symptom</text></g><g class="relationship" transform="translate(150.23638492138505 19.30436460685108) rotate(392.0559059948361)"><path class="outline" fill="#A5ABB6" stroke="none" d="M 32.5 0.5 L 33.88057740432973 0.5 L 33.88057740432973 -0.5 L 32.5 -0.5 Z M 86.54854615432973 0.5 L 87.92912355865946 0.5 L 87.92912355865946 3.5 L 94.92912355865946 0 L 87.92912355865946 -3.5 L 87.92912355865946 -0.5 L 86.54854615432973 -0.5 Z"/><text text-anchor="middle" pointer-events="none" font-size="8px" fill="#000000" x="60.21456177932973" y="3" font-family="sans-serif">has_sympt…</text></g><g class="relationship" transform="translate(150.23638492138505 19.30436460685108) rotate(485.5889251928422)"><path class="outline" fill="#A5ABB6" stroke="none" d="M 32.5 0.5 L 101.39027605308323 0.5 L 101.39027605308323 -0.5 L 32.5 -0.5 Z M 167.03871355308323 0.5 L 235.92898960616645 0.5 L 235.92898960616645 3.5 L 242.92898960616645 0 L 235.92898960616645 -3.5 L 235.92898960616645 -0.5 L 167.03871355308323 -0.5 Z"/><text text-anchor="middle" pointer-events="none" font-size="8px" fill="#000000" x="134.21449480308323" y="3" transform="rotate(180 134.21449480308323 0)" font-family="sans-serif">acompany_with</text></g><g class="relationship" transform="translate(150.23638492138505 19.30436460685108) rotate(525.3806895578837)"><path class="outline" fill="#A5ABB6" stroke="none" d="M 32.5 0.5 L 86.45842752559166 0.5 L 86.45842752559166 -0.5 L 32.5 -0.5 Z M 160.41545877559167 0.5 L 214.37388630118332 0.5 L 214.37388630118332 3.5 L 221.37388630118332 0 L 214.37388630118332 -3.5 L 214.37388630118332 -0.5 L 160.41545877559167 -0.5 Z"/><text text-anchor="middle" pointer-events="none" font-size="8px" fill="#000000" x="123.43694315059166" y="3" transform="rotate(180 123.43694315059166 0)" font-family="sans-serif">recommand_drug</text></g><g class="relationship" transform="translate(150.23638492138505 19.30436460685108) rotate(430.50753933559207)"><path class="outline" fill="#A5ABB6" stroke="none" d="M 32.5 0.5 L 61.35796357868942 0.5 L 61.35796357868942 -0.5 L 32.5 -0.5 Z M 135.3149948286894 0.5 L 164.17295840737884 0.5 L 164.17295840737884 3.5 L 171.17295840737884 0 L 164.17295840737884 -3.5 L 164.17295840737884 -0.5 L 135.3149948286894 -0.5 Z"/><text text-anchor="middle" pointer-events="none" font-size="8px" fill="#000000" x="98.33647920368942" y="3" font-family="sans-serif">recommand_drug</text></g><g class="relationship" transform="translate(150.23638492138505 19.30436460685108) rotate(512.2180018877342)"><path class="outline" fill="#A5ABB6" stroke="none" d="M 32.5 0.5 L 93.78869553344882 0.5 L 93.78869553344882 -0.5 L 32.5 -0.5 Z M 167.74572678344882 0.5 L 229.03442231689763 0.5 L 229.03442231689763 3.5 L 236.03442231689763 0 L 229.03442231689763 -3.5 L 229.03442231689763 -0.5 L 167.74572678344882 -0.5 Z"/><text text-anchor="middle" pointer-events="none" font-size="8px" fill="#000000" x="130.76721115844882" y="3" transform="rotate(180 130.76721115844882 0)" font-family="sans-serif">recommand_drug</text></g><g class="relationship" transform="translate(150.23638492138505 19.30436460685108) rotate(366.29044597548244)"><path class="outline" fill="#A5ABB6" stroke="none" d="M 31.26317983184346,-8.894581878976458 L 31.52199887694598,-7.92865605268739 A 199.14066628265405 199.14066628265405 0 0 1 46.541156361247076,-11.336489311446456 L 46.357757157629784,-12.319527831603494 A 200.14066628265405 200.14066628265405 0 0 0 31.26317983184346,-8.894581878976458 Z M 120.07676706790382,-12.261867074432189 L 119.89183028424023,-11.279116655430414 A 199.14066628265405 199.14066628265405 0 0 1 134.90563838859512,-7.847792528602826 L 134.1246491001033,-4.951233236742736 L 141.794441617684,-6.50824407076524 L 135.94695743991755,-11.709871584416279 L 135.16596815142574,-8.813312292556189 A 200.14066628265405 200.14066628265405 0 0 0 120.07676706790382,-12.261867074432189"/><text text-anchor="middle" pointer-events="none" font-size="8px" fill="#000000" x="83.21954874696297" y="-12.21414863955519" font-family="sans-serif">recommand_drug</text></g><g class="relationship" transform="translate(150.23638492138505 19.30436460685108) rotate(366.29044597548244)"><path class="outline" fill="#A5ABB6" stroke="none" d="M 31.26317983184346,8.894581878976458 L 31.52199887694598,7.92865605268739 A 199.14066628265405 199.14066628265405 0 0 0 52.46332362351218,12.349153042947165 L 52.3096630331717,13.337276731043062 A 200.14066628265405 200.14066628265405 0 0 1 31.26317983184346,8.894581878976458 Z M 114.12646057819161,13.288925520728469 L 113.97125441649622,12.30104341876904 A 199.14066628265405 199.14066628265405 0 0 0 134.90563838859512,7.847792528602826 L 134.1246491001033,4.951233236742736 L 141.794441617684,6.50824407076524 L 135.94695743991755,11.709871584416279 L 135.16596815142574,8.813312292556189 A 200.14066628265405 200.14066628265405 0 0 1 114.12646057819161,13.288925520728469"/><text text-anchor="middle" pointer-events="none" font-size="8px" fill="#000000" x="83.21954874696301" y="18.21414863955519" font-family="sans-serif">common_drug</text></g><g class="relationship" transform="translate(150.23638492138505 19.30436460685108) rotate(338.84550852347024)"><path class="outline" fill="#A5ABB6" stroke="none" d="M 31.26317983184346,-8.894581878976458 L 31.52199887694598,-7.92865605268739 A 224.93917997523397 224.93917997523397 0 0 1 53.169883232495295,-12.600531259699096 L 53.007303021187454,-13.587226590027115 A 225.93917997523397 225.93917997523397 0 0 0 31.26317983184346,-8.894581878976458 Z M 126.79641392190362,-13.533825926430836 L 126.63240575261804,-12.547366945830248 A 224.93917997523397 224.93917997523397 0 0 1 148.27350542952038,-7.844163803767911 L 147.49285490712114,-4.947513192824677 L 155.16246527545445,-6.50542101999358 L 149.31437279271935,-11.70636461835889 L 148.5337222703201,-8.809714007415655 A 225.93917997523397 225.93917997523397 0 0 0 126.79641392190362,-13.533825926430836"/><text text-anchor="middle" pointer-events="none" font-size="8px" fill="#000000" x="89.9036913597454" y="-13.093213710773483" font-family="sans-serif">recommand_drug</text></g><g class="relationship" transform="translate(150.23638492138505 19.30436460685108) rotate(338.84550852347024)"><path class="outline" fill="#A5ABB6" stroke="none" d="M 31.26317983184346,8.894581878976458 L 31.52199887694598,7.92865605268739 A 224.93917997523397 224.93917997523397 0 0 0 59.11234663880238,13.498317055766876 L 58.97618451707308,14.489003624064935 A 225.93917997523397 225.93917997523397 0 0 1 31.26317983184346,8.894581878976458 Z M 120.82884389698243,14.444241286969884 L 120.69124801274442,13.453752835426513 A 224.93917997523397 224.93917997523397 0 0 0 148.27350542952038,7.844163803767911 L 147.49285490712114,4.947513192824677 L 155.16246527545445,6.50542101999358 L 149.31437279271935,11.70636461835889 L 148.5337222703201,8.809714007415655 A 225.93917997523397 225.93917997523397 0 0 1 120.82884389698243,14.444241286969884"/><text text-anchor="middle" pointer-events="none" font-size="8px" fill="#000000" x="89.90369135974542" y="19.093213710773483" font-family="sans-serif">common_drug</text></g><g class="relationship" transform="translate(150.23638492138505 19.30436460685108) rotate(347.5401472263045)"><path class="outline" fill="#A5ABB6" stroke="none" d="M 32.5 0.5 L 36.847366212671254 0.5 L 36.847366212671254 -0.5 L 32.5 -0.5 Z M 87.40205371267126 0.5 L 91.74941992534251 0.5 L 91.74941992534251 3.5 L 98.74941992534251 0 L 91.74941992534251 -3.5 L 91.74941992534251 -0.5 L 87.40205371267126 -0.5 Z"/><text text-anchor="middle" pointer-events="none" font-size="8px" fill="#000000" x="62.124709962671254" y="3" font-family="sans-serif">need_check</text></g><g class="relationship" transform="translate(150.23638492138505 19.30436460685108) rotate(316.9610272504575)"><path class="outline" fill="#A5ABB6" stroke="none" d="M 32.5 0.5 L 78.81996988102503 0.5 L 78.81996988102503 -0.5 L 32.5 -0.5 Z M 129.37465738102503 0.5 L 175.69462726205006 0.5 L 175.69462726205006 3.5 L 182.69462726205006 0 L 175.69462726205006 -3.5 L 175.69462726205006 -0.5 L 129.37465738102503 -0.5 Z"/><text text-anchor="middle" pointer-events="none" font-size="8px" fill="#000000" x="104.09731363102503" y="3" font-family="sans-serif">need_check</text></g><g class="relationship" transform="translate(150.23638492138505 19.30436460685108) rotate(340.592466716065)"><path class="outline" fill="#A5ABB6" stroke="none" d="M 32.5 0.5 L 146.00363408619359 0.5 L 146.00363408619359 -0.5 L 32.5 -0.5 Z M 196.55832158619359 0.5 L 310.06195567238717 0.5 L 310.06195567238717 3.5 L 317.06195567238717 0 L 310.06195567238717 -3.5 L 310.06195567238717 -0.5 L 196.55832158619359 -0.5 Z"/><text text-anchor="middle" pointer-events="none" font-size="8px" fill="#000000" x="171.28097783619359" y="3" font-family="sans-serif">need_check</text></g><g class="relationship" transform="translate(150.23638492138505 19.30436460685108) rotate(356.5627312541517)"><path class="outline" fill="#A5ABB6" stroke="none" d="M 32.5 0.5 L 188.14933345389477 0.5 L 188.14933345389477 -0.5 L 32.5 -0.5 Z M 236.41495845389477 0.5 L 392.06429190778954 0.5 L 392.06429190778954 3.5 L 399.06429190778954 0 L 392.06429190778954 -3.5 L 392.06429190778954 -0.5 L 236.41495845389477 -0.5 Z"/><text text-anchor="middle" pointer-events="none" font-size="8px" fill="#000000" x="212.28214595389477" y="3" font-family="sans-serif">belongs_to</text></g><g class="relationship" transform="translate(150.23638492138505 19.30436460685108) rotate(444.3508095949968)"><path class="outline" fill="#A5ABB6" stroke="none" d="M 32.5 0.5 L 93.86687491318588 0.5 L 93.86687491318588 -0.5 L 32.5 -0.5 Z M 152.60906241318588 0.5 L 213.97593732637176 0.5 L 213.97593732637176 3.5 L 220.97593732637176 0 L 213.97593732637176 -3.5 L 213.97593732637176 -0.5 L 152.60906241318588 -0.5 Z"/><text text-anchor="middle" pointer-events="none" font-size="8px" fill="#000000" x="123.23796866318588" y="3" font-family="sans-serif">has_symptom</text></g><g class="relationship" transform="translate(150.23638492138505 19.30436460685108) rotate(275.6073117110809)"><path class="outline" fill="#A5ABB6" stroke="none" d="M 32.5 0.5 L 33.84312812770125 0.5 L 33.84312812770125 -0.5 L 32.5 -0.5 Z M 92.58531562770125 0.5 L 93.9284437554025 0.5 L 93.9284437554025 3.5 L 100.9284437554025 0 L 93.9284437554025 -3.5 L 93.9284437554025 -0.5 L 92.58531562770125 -0.5 Z"/><text text-anchor="middle" pointer-events="none" font-size="8px" fill="#000000" x="63.21422187770125" y="3" font-family="sans-serif">has_symptom</text></g><g class="relationship" transform="translate(150.23638492138505 19.30436460685108) rotate(389.0723578532303)"><path class="outline" fill="#A5ABB6" stroke="none" d="M 32.5 0.5 L 111.63699157417051 0.5 L 111.63699157417051 -0.5 L 32.5 -0.5 Z M 170.3791790741705 0.5 L 249.51617064834102 0.5 L 249.51617064834102 3.5 L 256.516170648341 0 L 249.51617064834102 -3.5 L 249.51617064834102 -0.5 L 170.3791790741705 -0.5 Z"/><text text-anchor="middle" pointer-events="none" font-size="8px" fill="#000000" x="141.0080853241705" y="3" font-family="sans-serif">has_symptom</text></g><g class="relationship" transform="translate(150.23638492138505 19.30436460685108) rotate(423.52401529767843)"><path class="outline" fill="#A5ABB6" stroke="none" d="M 32.5 0.5 L 40.715189848824664 0.5 L 40.715189848824664 -0.5 L 32.5 -0.5 Z M 99.45737734882466 0.5 L 107.67256719764933 0.5 L 107.67256719764933 3.5 L 114.67256719764933 0 L 107.67256719764933 -3.5 L 107.67256719764933 -0.5 L 99.45737734882466 -0.5 Z"/><text text-anchor="middle" pointer-events="none" font-size="8px" fill="#000000" x="70.08628359882466" y="3" font-family="sans-serif">has_symptom</text></g><g class="relationship" transform="translate(150.23638492138505 19.30436460685108) rotate(288.3073072299311)"><path class="outline" fill="#A5ABB6" stroke="none" d="M 32.5 0.5 L 90.00215291720573 0.5 L 90.00215291720573 -0.5 L 32.5 -0.5 Z M 148.74434041720573 0.5 L 206.24649333441147 0.5 L 206.24649333441147 3.5 L 213.24649333441147 0 L 206.24649333441147 -3.5 L 206.24649333441147 -0.5 L 148.74434041720573 -0.5 Z"/><text text-anchor="middle" pointer-events="none" font-size="8px" fill="#000000" x="119.37324666720573" y="3" font-family="sans-serif">has_symptom</text></g><g class="relationship" transform="translate(150.23638492138505 19.30436460685108) rotate(250.06383703687067)"><path class="outline" fill="#A5ABB6" stroke="none" d="M 32.5 0.5 L 40.44207883053805 0.5 L 40.44207883053805 -0.5 L 32.5 -0.5 Z M 99.18426633053805 0.5 L 107.1263451610761 0.5 L 107.1263451610761 3.5 L 114.1263451610761 0 L 107.1263451610761 -3.5 L 107.1263451610761 -0.5 L 99.18426633053805 -0.5 Z"/><text text-anchor="middle" pointer-events="none" font-size="8px" fill="#000000" x="69.81317258053805" y="3" transform="rotate(180 69.81317258053805 0)" font-family="sans-serif">has_symptom</text></g><g class="relationship" transform="translate(150.23638492138505 19.30436460685108) rotate(294.02949198863905)"><path class="outline" fill="#A5ABB6" stroke="none" d="M 32.5 0.5 L 50.646219042413506 0.5 L 50.646219042413506 -0.5 L 32.5 -0.5 Z M 116.2946565424135 0.5 L 134.440875584827 0.5 L 134.440875584827 3.5 L 141.440875584827 0 L 134.440875584827 -3.5 L 134.440875584827 -0.5 L 116.2946565424135 -0.5 Z"/><text text-anchor="middle" pointer-events="none" font-size="8px" fill="#000000" x="83.4704377924135" y="3" font-family="sans-serif">acompany_with</text></g><g class="relationship" transform="translate(150.23638492138505 19.30436460685108) rotate(203.2197959069232)"><path class="outline" fill="#A5ABB6" stroke="none" d="M 31.26317983184346,-8.894581878976458 L 31.52199887694598,-7.92865605268739 A 278.8222042224684 278.8222042224684 0 0 1 73.02350854595329,-15.738109044797 L 72.91353528515529,-16.73204359088612 A 279.8222042224684 279.8222042224684 0 0 0 31.26317983184346,-8.894581878976458 Z M 134.80762725648728,-16.69329974803577 L 134.69640973600573,-15.699503660733228 A 278.8222042224684 278.8222042224684 0 0 1 176.18810991898704,-7.838099411601437 L 175.4080255502333,-4.941296280971724 L 183.07733128524865,-6.500703072947707 L 177.22822241065867,-11.700503585774388 L 176.44813804190494,-8.803700455144675 A 279.8222042224684 279.8222042224684 0 0 0 134.80762725648728,-16.69329974803577"/><text text-anchor="middle" pointer-events="none" font-size="8px" fill="#000000" x="103.8613428045277" y="-14.929237549261586" transform="rotate(180 103.8613428045277 -17.929237549261586)" font-family="sans-serif">common_drug</text></g><g class="relationship" transform="translate(150.23638492138505 19.30436460685108) rotate(203.2197959069232)"><path class="outline" fill="#A5ABB6" stroke="none" d="M 31.26317983184346,8.894581878976458 L 31.52199887694598,7.92865605268739 A 278.8222042224684 278.8222042224684 0 0 0 67.0549152161518,15.012494820823008 L 66.9235355062281,16.003826940659962 A 279.8222042224684 279.8222042224684 0 0 1 31.26317983184346,8.894581878976458 Z M 140.79671065804138,15.957584551479044 L 140.66408996328994,14.966417687967294 A 278.8222042224684 278.8222042224684 0 0 0 176.18810991898704,7.838099411601437 L 175.4080255502333,4.941296280971724 L 183.07733128524865,6.500703072947707 L 177.22822241065867,11.700503585774388 L 176.44813804190494,8.803700455144675 A 279.8222042224684 279.8222042224684 0 0 1 140.79671065804138,15.957584551479044"/><text text-anchor="middle" pointer-events="none" font-size="8px" fill="#000000" x="103.86134280452774" y="20.929237549261586" transform="rotate(180 103.86134280452774 17.929237549261586)" font-family="sans-serif">recommand_drug</text></g><g class="relationship" transform="translate(150.23638492138505 19.30436460685108) rotate(260.39746960139007)"><path class="outline" fill="#A5ABB6" stroke="none" d="M 32.5 0.5 L 89.49369442970652 0.5 L 89.49369442970652 -0.5 L 32.5 -0.5 Z M 163.45072567970652 0.5 L 220.44442010941304 0.5 L 220.44442010941304 3.5 L 227.44442010941304 0 L 220.44442010941304 -3.5 L 220.44442010941304 -0.5 L 163.45072567970652 -0.5 Z"/><text text-anchor="middle" pointer-events="none" font-size="8px" fill="#000000" x="126.47221005470652" y="3" transform="rotate(180 126.47221005470652 0)" font-family="sans-serif">recommand_drug</text></g><g class="relationship" transform="translate(150.23638492138505 19.30436460685108) rotate(272.69512137420236)"><path class="outline" fill="#A5ABB6" stroke="none" d="M 31.26317983184346,-8.894581878976458 L 31.52199887694598,-7.92865605268739 A 236.71485433969994 236.71485433969994 0 0 1 56.200664588082084,-13.149856046148699 L 56.04610036796711,-14.137838789854385 A 237.71485433969994 237.71485433969994 0 0 0 31.26317983184346,-8.894581878976458 Z M 129.85920073541456,-14.086183301876702 L 129.7032538578008,-13.098417858381879 A 236.71485433969994 236.71485433969994 0 0 1 154.37458765589474,-7.842682012969488 L 153.59407546891404,-4.945994124022076 L 161.26361142793547,-6.5042682248391 L 155.415270571869,-11.704932531566037 L 154.6347583848883,-8.808244642618625 A 237.71485433969994 237.71485433969994 0 0 0 129.85920073541456,-14.086183301876702"/><text text-anchor="middle" pointer-events="none" font-size="8px" fill="#000000" x="92.95431782506145" y="-13.494461032573895" font-family="sans-serif">recommand_drug</text></g><g class="relationship" transform="translate(150.23638492138505 19.30436460685108) rotate(272.69512137420236)"><path class="outline" fill="#A5ABB6" stroke="none" d="M 31.26317983184346,8.894581878976458 L 31.52199887694598,7.92865605268739 A 236.71485433969994 236.71485433969994 0 0 0 62.15032984396967,14.003409528441097 L 62.02089993691875,14.994998101973891 A 237.71485433969994 237.71485433969994 0 0 1 31.26317983184346,8.894581878976458 Z M 123.88560672333989,14.951704274702848 L 123.75478908734911,13.960297826209683 A 236.71485433969994 236.71485433969994 0 0 0 154.37458765589474,7.842682012969488 L 153.59407546891404,4.945994124022076 L 161.26361142793547,6.5042682248391 L 155.415270571869,11.704932531566037 L 154.6347583848883,8.808244642618625 A 237.71485433969994 237.71485433969994 0 0 1 123.88560672333989,14.951704274702848"/><text text-anchor="middle" pointer-events="none" font-size="8px" fill="#000000" x="92.95431782506152" y="19.494461032573895" font-family="sans-serif">common_drug</text></g><g class="relationship" transform="translate(150.23638492138505 19.30436460685108) rotate(203.05809317124482)"><path class="outline" fill="#A5ABB6" stroke="none" d="M 32.5 0.5 L 35.72781349782392 0.5 L 35.72781349782392 -0.5 L 32.5 -0.5 Z M 109.68484474782392 0.5 L 112.91265824564783 0.5 L 112.91265824564783 3.5 L 119.91265824564783 0 L 112.91265824564783 -3.5 L 112.91265824564783 -0.5 L 109.68484474782392 -0.5 Z"/><text text-anchor="middle" pointer-events="none" font-size="8px" fill="#000000" x="72.70632912282392" y="3" transform="rotate(180 72.70632912282392 0)" font-family="sans-serif">recommand_drug</text></g><g class="relationship" transform="translate(150.23638492138505 19.30436460685108) rotate(229.2963391596499)"><path class="outline" fill="#A5ABB6" stroke="none" d="M 32.5 0.5 L 90.84074946134315 0.5 L 90.84074946134315 -0.5 L 32.5 -0.5 Z M 164.79778071134314 0.5 L 223.1385301726863 0.5 L 223.1385301726863 3.5 L 230.1385301726863 0 L 223.1385301726863 -3.5 L 223.1385301726863 -0.5 L 164.79778071134314 -0.5 Z"/><text text-anchor="middle" pointer-events="none" font-size="8px" fill="#000000" x="127.81926508634315" y="3" transform="rotate(180 127.81926508634315 0)" font-family="sans-serif">recommand_drug</text></g><g class="relationship" transform="translate(150.23638492138505 19.30436460685108) rotate(302.87706392627723)"><path class="outline" fill="#A5ABB6" stroke="none" d="M 32.5 0.5 L 91.8498980095432 0.5 L 91.8498980095432 -0.5 L 32.5 -0.5 Z M 142.4045855095432 0.5 L 201.7544835190864 0.5 L 201.7544835190864 3.5 L 208.7544835190864 0 L 201.7544835190864 -3.5 L 201.7544835190864 -0.5 L 142.4045855095432 -0.5 Z"/><text text-anchor="middle" pointer-events="none" font-size="8px" fill="#000000" x="117.1272417595432" y="3" font-family="sans-serif">need_check</text></g><g class="relationship" transform="translate(150.23638492138505 19.30436460685108) rotate(338.3301103079382)"><path class="outline" fill="#A5ABB6" stroke="none" d="M 32.5 0.5 L 116.75542983124282 0.5 L 116.75542983124282 -0.5 L 32.5 -0.5 Z M 167.31011733124282 0.5 L 251.56554716248564 0.5 L 251.56554716248564 3.5 L 258.56554716248564 0 L 251.56554716248564 -3.5 L 251.56554716248564 -0.5 L 167.31011733124282 -0.5 Z"/><text text-anchor="middle" pointer-events="none" font-size="8px" fill="#000000" x="142.03277358124282" y="3" font-family="sans-serif">need_check</text></g><g class="relationship" transform="translate(150.23638492138505 19.30436460685108) rotate(274.1468616953247)"><path class="outline" fill="#A5ABB6" stroke="none" d="M 32.5 0.5 L 97.53124924215565 0.5 L 97.53124924215565 -0.5 L 32.5 -0.5 Z M 148.08593674215564 0.5 L 213.1171859843113 0.5 L 213.1171859843113 3.5 L 220.1171859843113 0 L 213.1171859843113 -3.5 L 213.1171859843113 -0.5 L 148.08593674215564 -0.5 Z"/><text text-anchor="middle" pointer-events="none" font-size="8px" fill="#000000" x="122.80859299215565" y="3" font-family="sans-serif">need_check</text></g><g class="relationship" transform="translate(150.23638492138505 19.30436460685108) rotate(363.21732751394984)"><path class="outline" fill="#A5ABB6" stroke="none" d="M 32.5 0.5 L 169.8240362764528 0.5 L 169.8240362764528 -0.5 L 32.5 -0.5 Z M 218.0896612764528 0.5 L 355.4136975529056 0.5 L 355.4136975529056 3.5 L 362.4136975529056 0 L 355.4136975529056 -3.5 L 355.4136975529056 -0.5 L 218.0896612764528 -0.5 Z"/><text text-anchor="middle" pointer-events="none" font-size="8px" fill="#000000" x="193.9568487764528" y="3" font-family="sans-serif">belongs_to</text></g><g class="relationship" transform="translate(150.23638492138505 19.30436460685108) rotate(532.4084699449335)"><path class="outline" fill="#A5ABB6" stroke="none" d="M 32.5 0.5 L 138.23463609835713 0.5 L 138.23463609835713 -0.5 L 32.5 -0.5 Z M 196.97682359835713 0.5 L 302.71145969671426 0.5 L 302.71145969671426 3.5 L 309.71145969671426 0 L 302.71145969671426 -3.5 L 302.71145969671426 -0.5 L 196.97682359835713 -0.5 Z"/><text text-anchor="middle" pointer-events="none" font-size="8px" fill="#000000" x="167.60572984835713" y="3" transform="rotate(180 167.60572984835713 0)" font-family="sans-serif">has_symptom</text></g><g class="relationship" transform="translate(150.23638492138505 19.30436460685108) rotate(396.4933819156302)"><path class="outline" fill="#A5ABB6" stroke="none" d="M 32.5 0.5 L 134.21564486183587 0.5 L 134.21564486183587 -0.5 L 32.5 -0.5 Z M 192.95783236183587 0.5 L 294.67347722367174 0.5 L 294.67347722367174 3.5 L 301.67347722367174 0 L 294.67347722367174 -3.5 L 294.67347722367174 -0.5 L 192.95783236183587 -0.5 Z"/><text text-anchor="middle" pointer-events="none" font-size="8px" fill="#000000" x="163.58673861183587" y="3" font-family="sans-serif">has_symptom</text></g><g class="relationship" transform="translate(150.23638492138505 19.30436460685108) rotate(387.95835019832936)"><path class="outline" fill="#A5ABB6" stroke="none" d="M 32.5 0.5 L 60.36985629701252 0.5 L 60.36985629701252 -0.5 L 32.5 -0.5 Z M 119.11204379701252 0.5 L 146.98190009402504 0.5 L 146.98190009402504 3.5 L 153.98190009402504 0 L 146.98190009402504 -3.5 L 146.98190009402504 -0.5 L 119.11204379701252 -0.5 Z"/><text text-anchor="middle" pointer-events="none" font-size="8px" fill="#000000" x="89.74095004701252" y="3" font-family="sans-serif">has_symptom</text></g><g class="relationship" transform="translate(150.23638492138505 19.30436460685108) rotate(185.95348167011275)"><path class="outline" fill="#A5ABB6" stroke="none" d="M 32.5 0.5 L 67.21738694026143 0.5 L 67.21738694026143 -0.5 L 32.5 -0.5 Z M 125.95957444026143 0.5 L 160.67696138052287 0.5 L 160.67696138052287 3.5 L 167.67696138052287 0 L 160.67696138052287 -3.5 L 160.67696138052287 -0.5 L 125.95957444026143 -0.5 Z"/><text text-anchor="middle" pointer-events="none" font-size="8px" fill="#000000" x="96.58848069026143" y="3" transform="rotate(180 96.58848069026143 0)" font-family="sans-serif">has_symptom</text></g><g class="relationship" transform="translate(150.23638492138505 19.30436460685108) rotate(253.94793769160998)"><path class="outline" fill="#A5ABB6" stroke="none" d="M 32.5 0.5 L 69.90108942584219 0.5 L 69.90108942584219 -0.5 L 32.5 -0.5 Z M 128.6432769258422 0.5 L 166.04436635168437 0.5 L 166.04436635168437 3.5 L 173.04436635168437 0 L 166.04436635168437 -3.5 L 166.04436635168437 -0.5 L 128.6432769258422 -0.5 Z"/><text text-anchor="middle" pointer-events="none" font-size="8px" fill="#000000" x="99.27218317584219" y="3" transform="rotate(180 99.27218317584219 0)" font-family="sans-serif">has_symptom</text></g><g class="relationship" transform="translate(150.23638492138505 19.30436460685108) rotate(236.68046810655107)"><path class="outline" fill="#A5ABB6" stroke="none" d="M 32.5 0.5 L 71.48694744724646 0.5 L 71.48694744724646 -0.5 L 32.5 -0.5 Z M 130.22913494724645 0.5 L 169.21608239449293 0.5 L 169.21608239449293 3.5 L 176.21608239449293 0 L 169.21608239449293 -3.5 L 169.21608239449293 -0.5 L 130.22913494724645 -0.5 Z"/><text text-anchor="middle" pointer-events="none" font-size="8px" fill="#000000" x="100.85804119724646" y="3" transform="rotate(180 100.85804119724646 0)" font-family="sans-serif">has_symptom</text></g><g class="relationship" transform="translate(150.23638492138505 19.30436460685108) rotate(318.8209142638392)"><path class="outline" fill="#A5ABB6" stroke="none" d="M 32.5 0.5 L 33.94970934976119 0.5 L 33.94970934976119 -0.5 L 32.5 -0.5 Z M 99.59814684976119 0.5 L 101.04785619952239 0.5 L 101.04785619952239 3.5 L 108.04785619952239 0 L 101.04785619952239 -3.5 L 101.04785619952239 -0.5 L 99.59814684976119 -0.5 Z"/><text text-anchor="middle" pointer-events="none" font-size="8px" fill="#000000" x="66.77392809976119" y="3" font-family="sans-serif">acompany_with</text></g><g class="relationship" transform="translate(150.23638492138505 19.30436460685108) rotate(245.12983456742677)"><path class="outline" fill="#A5ABB6" stroke="none" d="M 32.5 0.5 L 88.88197946031472 0.5 L 88.88197946031472 -0.5 L 32.5 -0.5 Z M 162.8390107103147 0.5 L 219.22099017062945 0.5 L 219.22099017062945 3.5 L 226.22099017062945 0 L 219.22099017062945 -3.5 L 219.22099017062945 -0.5 L 162.8390107103147 -0.5 Z"/><text text-anchor="middle" pointer-events="none" font-size="8px" fill="#000000" x="125.86049508531472" y="3" transform="rotate(180 125.86049508531472 0)" font-family="sans-serif">recommand_drug</text></g><g class="relationship" transform="translate(150.23638492138505 19.30436460685108) rotate(417.26556355029015)"><path class="outline" fill="#A5ABB6" stroke="none" d="M 32.5 0.5 L 78.6159547465056 0.5 L 78.6159547465056 -0.5 L 32.5 -0.5 Z M 152.5729859965056 0.5 L 198.6889407430112 0.5 L 198.6889407430112 3.5 L 205.6889407430112 0 L 198.6889407430112 -3.5 L 198.6889407430112 -0.5 L 152.5729859965056 -0.5 Z"/><text text-anchor="middle" pointer-events="none" font-size="8px" fill="#000000" x="115.5944703715056" y="3" font-family="sans-serif">recommand_drug</text></g><g class="relationship" transform="translate(150.23638492138505 19.30436460685108) rotate(219.79375905564598)"><path class="outline" fill="#A5ABB6" stroke="none" d="M 31.26317983184346,8.894581878976458 L 31.52199887694598,7.92865605268739 A 282.12036056517337 282.12036056517337 0 0 0 67.90592011801786,15.153030054085718 L 67.77606702619917,16.144563298382195 A 283.12036056517337 283.12036056517337 0 0 1 31.26317983184346,8.894581878976458 Z M 141.6527148659992,16.09869778377481 L 141.52163070946057,15.107326539535507 A 282.12036056517337 282.12036056517337 0 0 0 177.89655355797012,7.8377809998502785 L 177.11649891524303,4.940969864418781 L 184.78578864776478,6.5004553560590095 L 178.93662641493955,11.700195847092276 L 178.15657177221246,8.803384711660778 A 283.12036056517337 283.12036056517337 0 0 1 141.6527148659992,16.09869778377481"/><text text-anchor="middle" pointer-events="none" font-size="8px" fill="#000000" x="104.7155829505567" y="21.04161975922051" transform="rotate(180 104.7155829505567 18.04161975922051)" font-family="sans-serif">recommand_drug</text></g><g class="relationship" transform="translate(150.23638492138505 19.30436460685108) rotate(219.79375905564598)"><path class="outline" fill="#A5ABB6" stroke="none" d="M 31.26317983184346,-8.894581878976458 L 31.52199887694598,-7.92865605268739 A 282.12036056517337 282.12036056517337 0 0 1 73.87566109738395,-15.87021940281295 L 73.76696826839569,-16.864294786738412 A 283.12036056517337 283.12036056517337 0 0 0 31.26317983184346,-8.894581878976458 Z M 135.66271191669537,-16.825867486401364 L 135.5527848501567,-15.831927830264135 A 282.12036056517337 282.12036056517337 0 0 1 177.89655355797012,-7.8377809998502785 L 177.11649891524303,-4.940969864418781 L 184.78578864776478,-6.5004553560590095 L 178.93662641493955,-11.700195847092276 L 178.15657177221246,-8.803384711660778 A 283.12036056517337 283.12036056517337 0 0 0 135.66271191669537,-16.825867486401364"/><text text-anchor="middle" pointer-events="none" font-size="8px" fill="#000000" x="104.71558295055655" y="-15.04161975922051" transform="rotate(180 104.71558295055655 -18.04161975922051)" font-family="sans-serif">common_drug</text></g><g class="relationship" transform="translate(150.23638492138505 19.30436460685108) rotate(538.6344422633514)"><path class="outline" fill="#A5ABB6" stroke="none" d="M 32.5 0.5 L 32.51819933667227 0.5 L 32.51819933667227 -0.5 L 32.5 -0.5 Z M 102.93616808667227 0.5 L 102.95436742334454 0.5 L 102.95436742334454 3.5 L 109.95436742334454 0 L 102.95436742334454 -3.5 L 102.95436742334454 -0.5 L 102.93616808667227 -0.5 Z"/><text text-anchor="middle" pointer-events="none" font-size="8px" fill="#000000" x="67.72718371167227" y="3" transform="rotate(180 67.72718371167227 0)" font-family="sans-serif">recommand_dr…</text></g><g class="relationship" transform="translate(150.23638492138505 19.30436460685108) rotate(478.5403313046046)"><path class="outline" fill="#A5ABB6" stroke="none" d="M 31.26317983184346,8.894581878976458 L 31.52199887694598,7.92865605268739 A 293.76862869582845 293.76862869582845 0 0 0 70.91217104853115,15.644334650946007 L 70.78743770327499,16.636524951534113 A 294.76862869582845 294.76862869582845 0 0 1 31.26317983184346,8.894581878976458 Z M 144.67529790988613,16.591943015465063 L 144.5493673343122,15.599903958705909 A 293.76862869582845 293.76862869582845 0 0 0 183.93019996511998,7.836697067025775 L 183.1502465153547,4.939858684202316 L 190.81948176666893,6.499612081377356 L 184.97013789814036,11.69914824412372 L 184.19018444837508,8.802309861300262 A 294.76862869582845 294.76862869582845 0 0 1 144.67529790988613,16.591943015465063"/><text text-anchor="middle" pointer-events="none" font-size="8px" fill="#000000" x="107.73246853489596" y="21.438525772147045" transform="rotate(180 107.73246853489596 18.438525772147045)" font-family="sans-serif">recommand_drug</text></g><g class="relationship" transform="translate(150.23638492138505 19.30436460685108) rotate(478.5403313046046)"><path class="outline" fill="#A5ABB6" stroke="none" d="M 31.26317983184346,-8.894581878976458 L 31.52199887694598,-7.92865605268739 A 293.76862869582845 293.76862869582845 0 0 1 76.885672184735,-16.333269285663903 L 76.78127287297562,-17.327804746924187 A 294.76862869582845 294.76862869582845 0 0 0 31.26317983184346,-8.894581878976458 Z M 138.6823013031549,-17.290455340886922 L 138.5767019162602,-16.296046587160617 A 293.76862869582845 293.76862869582845 0 0 1 183.93019996511998,-7.836697067025775 L 183.1502465153547,-4.939858684202316 L 190.81948176666893,-6.499612081377356 L 184.97013789814036,-11.69914824412372 L 184.19018444837508,-8.802309861300262 A 294.76862869582845 294.76862869582845 0 0 0 138.6823013031549,-17.290455340886922"/><text text-anchor="middle" pointer-events="none" font-size="8px" fill="#000000" x="107.7324685348958" y="-15.438525772147045" transform="rotate(180 107.7324685348958 -18.438525772147045)" font-family="sans-serif">common_drug</text></g><g class="relationship" transform="translate(150.23638492138505 19.30436460685108) rotate(349.102504982538)"><path class="outline" fill="#A5ABB6" stroke="none" d="M 32.5 0.5 L 128.14525053498656 0.5 L 128.14525053498656 -0.5 L 32.5 -0.5 Z M 178.69993803498656 0.5 L 274.3451885699731 0.5 L 274.3451885699731 3.5 L 281.3451885699731 0 L 274.3451885699731 -3.5 L 274.3451885699731 -0.5 L 178.69993803498656 -0.5 Z"/><text text-anchor="middle" pointer-events="none" font-size="8px" fill="#000000" x="153.42259428498656" y="3" font-family="sans-serif">need_check</text></g><g class="relationship" transform="translate(150.23638492138505 19.30436460685108) rotate(430.82969798673)"><path class="outline" fill="#A5ABB6" stroke="none" d="M 32.5 0.5 L 103.04261064883687 0.5 L 103.04261064883687 -0.5 L 32.5 -0.5 Z M 153.59729814883687 0.5 L 224.13990879767374 0.5 L 224.13990879767374 3.5 L 231.13990879767374 0 L 224.13990879767374 -3.5 L 224.13990879767374 -0.5 L 153.59729814883687 -0.5 Z"/><text text-anchor="middle" pointer-events="none" font-size="8px" fill="#000000" x="128.31995439883687" y="3" font-family="sans-serif">need_check</text></g><g class="relationship" transform="translate(150.23638492138505 19.30436460685108) rotate(511.4615497041435)"><path class="outline" fill="#A5ABB6" stroke="none" d="M 32.5 0.5 L 41.383311559244106 0.5 L 41.383311559244106 -0.5 L 32.5 -0.5 Z M 91.9379990592441 0.5 L 100.82131061848821 0.5 L 100.82131061848821 3.5 L 107.82131061848821 0 L 100.82131061848821 -3.5 L 100.82131061848821 -0.5 L 91.9379990592441 -0.5 Z"/><text text-anchor="middle" pointer-events="none" font-size="8px" fill="#000000" x="66.6606553092441" y="3" transform="rotate(180 66.6606553092441 0)" font-family="sans-serif">need_check</text></g><g class="relationship" transform="translate(150.23638492138505 19.30436460685108) rotate(363.80214927977255)"><path class="outline" fill="#A5ABB6" stroke="none" d="M 32.5 0.5 L 199.53654955030257 0.5 L 199.53654955030257 -0.5 L 32.5 -0.5 Z M 247.80217455030257 0.5 L 414.83872410060513 0.5 L 414.83872410060513 3.5 L 421.83872410060513 0 L 414.83872410060513 -3.5 L 414.83872410060513 -0.5 L 247.80217455030257 -0.5 Z"/><text text-anchor="middle" pointer-events="none" font-size="8px" fill="#000000" x="223.66936205030257" y="3" font-family="sans-serif">belongs_to</text></g><g class="relationship" transform="translate(150.23638492138505 19.30436460685108) rotate(226.46453998915297)"><path class="outline" fill="#A5ABB6" stroke="none" d="M 32.5 0.5 L 45.7739338842141 0.5 L 45.7739338842141 -0.5 L 32.5 -0.5 Z M 104.5161213842141 0.5 L 117.7900552684282 0.5 L 117.7900552684282 3.5 L 124.7900552684282 0 L 117.7900552684282 -3.5 L 117.7900552684282 -0.5 L 104.5161213842141 -0.5 Z"/><text text-anchor="middle" pointer-events="none" font-size="8px" fill="#000000" x="75.1450276342141" y="3" transform="rotate(180 75.1450276342141 0)" font-family="sans-serif">has_symptom</text></g><g class="relationship" transform="translate(150.23638492138505 19.30436460685108) rotate(490.4464207734956)"><path class="outline" fill="#A5ABB6" stroke="none" d="M 32.5 0.5 L 51.08328841819028 0.5 L 51.08328841819028 -0.5 L 32.5 -0.5 Z M 109.82547591819028 0.5 L 128.40876433638056 0.5 L 128.40876433638056 3.5 L 135.40876433638056 0 L 128.40876433638056 -3.5 L 128.40876433638056 -0.5 L 109.82547591819028 -0.5 Z"/><text text-anchor="middle" pointer-events="none" font-size="8px" fill="#000000" x="80.45438216819028" y="3" transform="rotate(180 80.45438216819028 0)" font-family="sans-serif">has_symptom</text></g><g class="relationship" transform="translate(150.23638492138505 19.30436460685108) rotate(378.0305414868611)"><path class="outline" fill="#A5ABB6" stroke="none" d="M 32.5 0.5 L 122.0228067086602 0.5 L 122.0228067086602 -0.5 L 32.5 -0.5 Z M 180.7649942086602 0.5 L 270.2878009173204 0.5 L 270.2878009173204 3.5 L 277.2878009173204 0 L 270.2878009173204 -3.5 L 270.2878009173204 -0.5 L 180.7649942086602 -0.5 Z"/><text text-anchor="middle" pointer-events="none" font-size="8px" fill="#000000" x="151.3939004586602" y="3" font-family="sans-serif">has_symptom</text></g><g class="relationship" transform="translate(150.23638492138505 19.30436460685108) rotate(456.2401272091588)"><path class="outline" fill="#A5ABB6" stroke="none" d="M 32.5 0.5 L 107.26802506420685 0.5 L 107.26802506420685 -0.5 L 32.5 -0.5 Z M 166.01021256420685 0.5 L 240.7782376284137 0.5 L 240.7782376284137 3.5 L 247.7782376284137 0 L 240.7782376284137 -3.5 L 240.7782376284137 -0.5 L 166.01021256420685 -0.5 Z"/><text text-anchor="middle" pointer-events="none" font-size="8px" fill="#000000" x="136.63911881420685" y="3" transform="rotate(180 136.63911881420685 0)" font-family="sans-serif">has_symptom</text></g><g class="relationship" transform="translate(150.23638492138505 19.30436460685108) rotate(469.12441616085505)"><path class="outline" fill="#A5ABB6" stroke="none" d="M 32.5 0.5 L 52.60944791089169 0.5 L 52.60944791089169 -0.5 L 32.5 -0.5 Z M 111.35163541089169 0.5 L 131.46108332178338 0.5 L 131.46108332178338 3.5 L 138.46108332178338 0 L 131.46108332178338 -3.5 L 131.46108332178338 -0.5 L 111.35163541089169 -0.5 Z"/><text text-anchor="middle" pointer-events="none" font-size="8px" fill="#000000" x="81.98054166089169" y="3" transform="rotate(180 81.98054166089169 0)" font-family="sans-serif">has_symptom</text></g><g class="relationship" transform="translate(150.23638492138505 19.30436460685108) rotate(406.96340714954033)"><path class="outline" fill="#A5ABB6" stroke="none" d="M 32.5 0.5 L 62.60242187297624 0.5 L 62.60242187297624 -0.5 L 32.5 -0.5 Z M 121.34460937297624 0.5 L 151.44703124595247 0.5 L 151.44703124595247 3.5 L 158.44703124595247 0 L 151.44703124595247 -3.5 L 151.44703124595247 -0.5 L 121.34460937297624 -0.5 Z"/><text text-anchor="middle" pointer-events="none" font-size="8px" fill="#000000" x="91.97351562297624" y="3" font-family="sans-serif">has_symptom</text></g><g class="relationship" transform="translate(668.190593345865 227.1912890886584) rotate(247.9782565346414)"><path class="outline" fill="#A5ABB6" stroke="none" d="M 32.5 0.5 L 72.25982519474876 0.5 L 72.25982519474876 -0.5 L 32.5 -0.5 Z M 120.52545019474876 0.5 L 160.2852753894975 0.5 L 160.2852753894975 3.5 L 167.2852753894975 0 L 160.2852753894975 -3.5 L 160.2852753894975 -0.5 L 120.52545019474876 -0.5 Z"/><text text-anchor="middle" pointer-events="none" font-size="8px" fill="#000000" x="96.39263769474876" y="3" transform="rotate(180 96.39263769474876 0)" font-family="sans-serif">belongs_to</text></g><g class="relationship" transform="translate(668.190593345865 227.1912890886584) rotate(230.40424565138744)"><path class="outline" fill="#A5ABB6" stroke="none" d="M 32.5 0.5 L 61.18541945305256 0.5 L 61.18541945305256 -0.5 L 32.5 -0.5 Z M 109.45104445305256 0.5 L 138.13646390610512 0.5 L 138.13646390610512 3.5 L 145.13646390610512 0 L 138.13646390610512 -3.5 L 138.13646390610512 -0.5 L 109.45104445305256 -0.5 Z"/><text text-anchor="middle" pointer-events="none" font-size="8px" fill="#000000" x="85.31823195305256" y="3" transform="rotate(180 85.31823195305256 0)" font-family="sans-serif">belongs_to</text></g><g class="relationship" transform="translate(668.190593345865 227.1912890886584) rotate(247.91800228006076)"><path class="outline" fill="#A5ABB6" stroke="none" d="M 32.5 0.5 L 102.00764985249512 0.5 L 102.00764985249512 -0.5 L 32.5 -0.5 Z M 150.27327485249512 0.5 L 219.78092470499024 0.5 L 219.78092470499024 3.5 L 226.78092470499024 0 L 219.78092470499024 -3.5 L 219.78092470499024 -0.5 L 150.27327485249512 -0.5 Z"/><text text-anchor="middle" pointer-events="none" font-size="8px" fill="#000000" x="126.14046235249512" y="3" transform="rotate(180 126.14046235249512 0)" font-family="sans-serif">belongs_to</text></g><g class="relationship" transform="translate(668.190593345865 227.1912890886584) rotate(234.83268393934173)"><path class="outline" fill="#A5ABB6" stroke="none" d="M 32.5 0.5 L 89.97036454752714 0.5 L 89.97036454752714 -0.5 L 32.5 -0.5 Z M 138.23598954752714 0.5 L 195.70635409505428 0.5 L 195.70635409505428 3.5 L 202.70635409505428 0 L 195.70635409505428 -3.5 L 195.70635409505428 -0.5 L 138.23598954752714 -0.5 Z"/><text text-anchor="middle" pointer-events="none" font-size="8px" fill="#000000" x="114.10317704752714" y="3" transform="rotate(180 114.10317704752714 0)" font-family="sans-serif">belongs_to</text></g><g class="relationship" transform="translate(668.190593345865 227.1912890886584) rotate(206.37902509812056)"><path class="outline" fill="#A5ABB6" stroke="none" d="M 32.5 0.5 L 99.53044543053028 0.5 L 99.53044543053028 -0.5 L 32.5 -0.5 Z M 158.27263293053028 0.5 L 225.30307836106056 0.5 L 225.30307836106056 3.5 L 232.30307836106056 0 L 225.30307836106056 -3.5 L 225.30307836106056 -0.5 L 158.27263293053028 -0.5 Z"/><text text-anchor="middle" pointer-events="none" font-size="8px" fill="#000000" x="128.90153918053028" y="3" transform="rotate(180 128.90153918053028 0)" font-family="sans-serif">has_symptom</text></g><g class="relationship" transform="translate(668.190593345865 227.1912890886584) rotate(183.04989914620523)"><path class="outline" fill="#A5ABB6" stroke="none" d="M 32.5 0.5 L 98.72651750319964 0.5 L 98.72651750319964 -0.5 L 32.5 -0.5 Z M 157.46870500319966 0.5 L 223.6952225063993 0.5 L 223.6952225063993 3.5 L 230.6952225063993 0 L 223.6952225063993 -3.5 L 223.6952225063993 -0.5 L 157.46870500319966 -0.5 Z"/><text text-anchor="middle" pointer-events="none" font-size="8px" fill="#000000" x="128.09761125319966" y="3" transform="rotate(180 128.09761125319966 0)" font-family="sans-serif">has_symptom</text></g><g class="relationship" transform="translate(668.190593345865 227.1912890886584) rotate(194.65283707875795)"><path class="outline" fill="#A5ABB6" stroke="none" d="M 32.5 0.5 L 111.40285133702653 0.5 L 111.40285133702653 -0.5 L 32.5 -0.5 Z M 170.14503883702653 0.5 L 249.04789017405307 0.5 L 249.04789017405307 3.5 L 256.04789017405307 0 L 249.04789017405307 -3.5 L 249.04789017405307 -0.5 L 170.14503883702653 -0.5 Z"/><text text-anchor="middle" pointer-events="none" font-size="8px" fill="#000000" x="140.77394508702653" y="3" transform="rotate(180 140.77394508702653 0)" font-family="sans-serif">has_symptom</text></g><g class="relationship" transform="translate(668.190593345865 227.1912890886584) rotate(194.87601920432098)"><path class="outline" fill="#A5ABB6" stroke="none" d="M 32.5 0.5 L 81.52383053727786 0.5 L 81.52383053727786 -0.5 L 32.5 -0.5 Z M 140.26601803727786 0.5 L 189.28984857455572 0.5 L 189.28984857455572 3.5 L 196.28984857455572 0 L 189.28984857455572 -3.5 L 189.28984857455572 -0.5 L 140.26601803727786 -0.5 Z"/><text text-anchor="middle" pointer-events="none" font-size="8px" fill="#000000" x="110.89492428727786" y="3" transform="rotate(180 110.89492428727786 0)" font-family="sans-serif">has_symptom</text></g><g class="relationship" transform="translate(788.00617120009 150.11351479991143) rotate(207.79850721973088)"><path class="outline" fill="#A5ABB6" stroke="none" d="M 32.5 0.5 L 84.59336530385089 0.5 L 84.59336530385089 -0.5 L 32.5 -0.5 Z M 132.85899030385087 0.5 L 184.95235560770178 0.5 L 184.95235560770178 3.5 L 191.95235560770178 0 L 184.95235560770178 -3.5 L 184.95235560770178 -0.5 L 132.85899030385087 -0.5 Z"/><text text-anchor="middle" pointer-events="none" font-size="8px" fill="#000000" x="108.72617780385089" y="3" transform="rotate(180 108.72617780385089 0)" font-family="sans-serif">belongs_to</text></g><g class="relationship" transform="translate(788.00617120009 150.11351479991143) rotate(203.48900167351331)"><path class="outline" fill="#A5ABB6" stroke="none" d="M 32.5 0.5 L 112.93798162632237 0.5 L 112.93798162632237 -0.5 L 32.5 -0.5 Z M 161.20360662632237 0.5 L 241.64158825264474 0.5 L 241.64158825264474 3.5 L 248.64158825264474 0 L 241.64158825264474 -3.5 L 241.64158825264474 -0.5 L 161.20360662632237 -0.5 Z"/><text text-anchor="middle" pointer-events="none" font-size="8px" fill="#000000" x="137.07079412632237" y="3" transform="rotate(180 137.07079412632237 0)" font-family="sans-serif">belongs_to</text></g><g class="relationship" transform="translate(788.00617120009 150.11351479991143) rotate(193.31556609221911)"><path class="outline" fill="#A5ABB6" stroke="none" d="M 32.5 0.5 L 93.39757755496325 0.5 L 93.39757755496325 -0.5 L 32.5 -0.5 Z M 141.66320255496325 0.5 L 202.5607801099265 0.5 L 202.5607801099265 3.5 L 209.5607801099265 0 L 202.5607801099265 -3.5 L 202.5607801099265 -0.5 L 141.66320255496325 -0.5 Z"/><text text-anchor="middle" pointer-events="none" font-size="8px" fill="#000000" x="117.53039005496325" y="3" transform="rotate(180 117.53039005496325 0)" font-family="sans-serif">belongs_to</text></g><g class="relationship" transform="translate(788.00617120009 150.11351479991143) rotate(216.0722918269795)"><path class="outline" fill="#A5ABB6" stroke="none" d="M 32.5 0.5 L 108.7876537408626 0.5 L 108.7876537408626 -0.5 L 32.5 -0.5 Z M 157.0532787408626 0.5 L 233.3409324817252 0.5 L 233.3409324817252 3.5 L 240.3409324817252 0 L 233.3409324817252 -3.5 L 233.3409324817252 -0.5 L 157.0532787408626 -0.5 Z"/><text text-anchor="middle" pointer-events="none" font-size="8px" fill="#000000" x="132.9204662408626" y="3" transform="rotate(180 132.9204662408626 0)" font-family="sans-serif">belongs_to</text></g><g class="relationship" transform="translate(860.781513283349 12.620071341521253) rotate(183.7328833951206)"><path class="outline" fill="#A5ABB6" stroke="none" d="M 32.5 0.5 L 120.04439651142738 0.5 L 120.04439651142738 -0.5 L 32.5 -0.5 Z M 168.31002151142738 0.5 L 255.85441802285476 0.5 L 255.85441802285476 3.5 L 262.85441802285476 0 L 255.85441802285476 -3.5 L 255.85441802285476 -0.5 L 168.31002151142738 -0.5 Z"/><text text-anchor="middle" pointer-events="none" font-size="8px" fill="#000000" x="144.17720901142738" y="3" transform="rotate(180 144.17720901142738 0)" font-family="sans-serif">belongs_to</text></g><g class="relationship" transform="translate(860.781513283349 12.620071341521253) rotate(524.5021736913354)"><path class="outline" fill="#A5ABB6" stroke="none" d="M 32.5 0.5 L 132.31145331022194 0.5 L 132.31145331022194 -0.5 L 32.5 -0.5 Z M 180.57707831022194 0.5 L 280.38853162044387 0.5 L 280.38853162044387 3.5 L 287.38853162044387 0 L 280.38853162044387 -3.5 L 280.38853162044387 -0.5 L 180.57707831022194 -0.5 Z"/><text text-anchor="middle" pointer-events="none" font-size="8px" fill="#000000" x="156.44426581022194" y="3" transform="rotate(180 156.44426581022194 0)" font-family="sans-serif">belongs_to</text></g><g class="relationship" transform="translate(860.781513283349 12.620071341521253) rotate(532.1879409016582)"><path class="outline" fill="#A5ABB6" stroke="none" d="M 32.5 0.5 L 109.70190556723583 0.5 L 109.70190556723583 -0.5 L 32.5 -0.5 Z M 157.96753056723583 0.5 L 235.16943613447165 0.5 L 235.16943613447165 3.5 L 242.16943613447165 0 L 235.16943613447165 -3.5 L 235.16943613447165 -0.5 L 157.96753056723583 -0.5 Z"/><text text-anchor="middle" pointer-events="none" font-size="8px" fill="#000000" x="133.83471806723583" y="3" transform="rotate(180 133.83471806723583 0)" font-family="sans-serif">belongs_to</text></g><g class="relationship" transform="translate(860.781513283349 12.620071341521253) rotate(534.9818173710988)"><path class="outline" fill="#A5ABB6" stroke="none" d="M 32.5 0.5 L 138.6110572340264 0.5 L 138.6110572340264 -0.5 L 32.5 -0.5 Z M 186.8766822340264 0.5 L 292.9877394680528 0.5 L 292.9877394680528 3.5 L 299.9877394680528 0 L 292.9877394680528 -3.5 L 292.9877394680528 -0.5 L 186.8766822340264 -0.5 Z"/><text text-anchor="middle" pointer-events="none" font-size="8px" fill="#000000" x="162.7438697340264" y="3" transform="rotate(180 162.7438697340264 0)" font-family="sans-serif">belongs_to</text></g><g class="relationship" transform="translate(703.777502808018 -145.14980389359056) rotate(491.8441870760461)"><path class="outline" fill="#A5ABB6" stroke="none" d="M 32.5 0.5 L 101.08814411526268 0.5 L 101.08814411526268 -0.5 L 32.5 -0.5 Z M 149.35376911526268 0.5 L 217.94191323052536 0.5 L 217.94191323052536 3.5 L 224.94191323052536 0 L 217.94191323052536 -3.5 L 217.94191323052536 -0.5 L 149.35376911526268 -0.5 Z"/><text text-anchor="middle" pointer-events="none" font-size="8px" fill="#000000" x="125.22095661526268" y="3" transform="rotate(180 125.22095661526268 0)" font-family="sans-serif">belongs_to</text></g><g class="relationship" transform="translate(703.777502808018 -145.14980389359056) rotate(479.02325963895936)"><path class="outline" fill="#A5ABB6" stroke="none" d="M 32.5 0.5 L 87.09590021168877 0.5 L 87.09590021168877 -0.5 L 32.5 -0.5 Z M 135.3615252116888 0.5 L 189.95742542337754 0.5 L 189.95742542337754 3.5 L 196.95742542337754 0 L 189.95742542337754 -3.5 L 189.95742542337754 -0.5 L 135.3615252116888 -0.5 Z"/><text text-anchor="middle" pointer-events="none" font-size="8px" fill="#000000" x="111.22871271168877" y="3" transform="rotate(180 111.22871271168877 0)" font-family="sans-serif">belongs_to</text></g><g class="relationship" transform="translate(703.777502808018 -145.14980389359056) rotate(480.83817949524195)"><path class="outline" fill="#A5ABB6" stroke="none" d="M 32.5 0.5 L 116.59905342545909 0.5 L 116.59905342545909 -0.5 L 32.5 -0.5 Z M 164.8646784254591 0.5 L 248.96373185091818 0.5 L 248.96373185091818 3.5 L 255.96373185091818 0 L 248.96373185091818 -3.5 L 248.96373185091818 -0.5 L 164.8646784254591 -0.5 Z"/><text text-anchor="middle" pointer-events="none" font-size="8px" fill="#000000" x="140.7318659254591" y="3" transform="rotate(180 140.7318659254591 0)" font-family="sans-serif">belongs_to</text></g><g class="relationship" transform="translate(703.777502808018 -145.14980389359056) rotate(493.13042918716695)"><path class="outline" fill="#A5ABB6" stroke="none" d="M 32.5 0.5 L 71.36879113897425 0.5 L 71.36879113897425 -0.5 L 32.5 -0.5 Z M 119.63441613897425 0.5 L 158.5032072779485 0.5 L 158.5032072779485 3.5 L 165.5032072779485 0 L 158.5032072779485 -3.5 L 158.5032072779485 -0.5 L 119.63441613897425 -0.5 Z"/><text text-anchor="middle" pointer-events="none" font-size="8px" fill="#000000" x="95.50160363897425" y="3" transform="rotate(180 95.50160363897425 0)" font-family="sans-serif">belongs_to</text></g><g class="relationship" transform="translate(703.777502808018 -145.14980389359056) rotate(528.3595411666029)"><path class="outline" fill="#A5ABB6" stroke="none" d="M 32.5 0.5 L 123.02569488404725 0.5 L 123.02569488404725 -0.5 L 32.5 -0.5 Z M 173.58038238404725 0.5 L 264.1060772680945 0.5 L 264.1060772680945 3.5 L 271.1060772680945 0 L 264.1060772680945 -3.5 L 264.1060772680945 -0.5 L 173.58038238404725 -0.5 Z"/><text text-anchor="middle" pointer-events="none" font-size="8px" fill="#000000" x="148.30303863404725" y="3" transform="rotate(180 148.30303863404725 0)" font-family="sans-serif">need_check</text></g><g class="relationship" transform="translate(703.777502808018 -145.14980389359056) rotate(539.1423190488274)"><path class="outline" fill="#A5ABB6" stroke="none" d="M 32.5 0.5 L 109.15689563702708 0.5 L 109.15689563702708 -0.5 L 32.5 -0.5 Z M 159.71158313702708 0.5 L 236.36847877405415 0.5 L 236.36847877405415 3.5 L 243.36847877405415 0 L 236.36847877405415 -3.5 L 236.36847877405415 -0.5 L 159.71158313702708 -0.5 Z"/><text text-anchor="middle" pointer-events="none" font-size="8px" fill="#000000" x="134.43423938702708" y="3" transform="rotate(180 134.43423938702708 0)" font-family="sans-serif">need_check</text></g><g class="relationship" transform="translate(703.777502808018 -145.14980389359056) rotate(517.1412556886721)"><path class="outline" fill="#A5ABB6" stroke="none" d="M 32.5 0.5 L 112.10220609422183 0.5 L 112.10220609422183 -0.5 L 32.5 -0.5 Z M 162.65689359422183 0.5 L 242.25909968844365 0.5 L 242.25909968844365 3.5 L 249.25909968844365 0 L 242.25909968844365 -3.5 L 242.25909968844365 -0.5 L 162.65689359422183 -0.5 Z"/><text text-anchor="middle" pointer-events="none" font-size="8px" fill="#000000" x="137.37954984422183" y="3" transform="rotate(180 137.37954984422183 0)" font-family="sans-serif">need_check</text></g><g class="relationship" transform="translate(703.777502808018 -145.14980389359056) rotate(527.5947924136922)"><path class="outline" fill="#A5ABB6" stroke="none" d="M 32.5 0.5 L 93.19045206751676 0.5 L 93.19045206751676 -0.5 L 32.5 -0.5 Z M 143.74513956751676 0.5 L 204.43559163503352 0.5 L 204.43559163503352 3.5 L 211.43559163503352 0 L 204.43559163503352 -3.5 L 204.43559163503352 -0.5 L 143.74513956751676 -0.5 Z"/><text text-anchor="middle" pointer-events="none" font-size="8px" fill="#000000" x="118.46779581751676" y="3" transform="rotate(180 118.46779581751676 0)" font-family="sans-serif">need_check</text></g></g><g class="layer nodes"><g class="node" transform="translate(668.190593345865,227.1912890886584)"><circle class="outline" cx="0" cy="0" r="32.5" fill="#57C7E3" stroke="#23b3d7" stroke-width="2px"/><text text-anchor="middle" pointer-events="none" font-family="sans-serif" dy="2.03125" font-size="32.5" fill="#FFFFFF"/><text text-anchor="middle" pointer-events="none" y="5" font-size="10px" fill="#FFFFFF" font-family="sans-serif"> 肺泡蛋白质…</text></g><g class="node" transform="translate(788.00617120009,150.11351479991143)"><circle class="outline" cx="0" cy="0" r="32.5" fill="#57C7E3" stroke="#23b3d7" stroke-width="2px"/><text text-anchor="middle" pointer-events="none" font-family="sans-serif" dy="2.03125" font-size="32.5" fill="#FFFFFF"/><text text-anchor="middle" pointer-events="none" y="5" font-size="10px" fill="#FFFFFF" font-family="sans-serif"> 喘息样支气…</text></g><g class="node" transform="translate(860.781513283349,12.620071341521253)"><circle class="outline" cx="0" cy="0" r="32.5" fill="#57C7E3" stroke="#23b3d7" stroke-width="2px"/><text text-anchor="middle" pointer-events="none" font-family="sans-serif" dy="2.03125" font-size="32.5" fill="#FFFFFF"/><text text-anchor="middle" pointer-events="none" y="5" font-size="10px" fill="#FFFFFF" font-family="sans-serif"> 成人呼吸窘…</text></g><g class="node" transform="translate(150.23638492138505,19.30436460685108)"><circle class="outline" cx="0" cy="0" r="32.5" fill="#57C7E3" stroke="#23b3d7" stroke-width="2px"/><text text-anchor="middle" pointer-events="none" font-family="sans-serif" dy="2.03125" font-size="32.5" fill="#FFFFFF"/><text text-anchor="middle" pointer-events="none" y="5" font-size="10px" fill="#FFFFFF" font-family="sans-serif"> 单纯性肺嗜…</text></g><g class="node" transform="translate(703.777502808018,-145.14980389359056)"><circle class="outline" cx="0" cy="0" r="32.5" fill="#57C7E3" stroke="#23b3d7" stroke-width="2px"/><text text-anchor="middle" pointer-events="none" font-family="sans-serif" dy="2.03125" font-size="32.5" fill="#FFFFFF"/><text text-anchor="middle" pointer-events="none" y="5" font-size="10px" fill="#FFFFFF" font-family="sans-serif"> 大叶性肺炎</text></g><g class="node" transform="translate(-190.63934558283182,-120.05917857566763)"><circle class="outline" cx="0" cy="0" r="32.5" fill="#57C7E3" stroke="#23b3d7" stroke-width="2px"/><text text-anchor="middle" pointer-events="none" font-family="sans-serif" dy="2.03125" font-size="32.5" fill="#FFFFFF"/><text text-anchor="middle" pointer-events="none" y="5" font-size="10px" fill="#FFFFFF" font-family="sans-serif"> 胆道蛔虫病</text></g><g class="node" transform="translate(-32.03125481609799,60.33661028889142)"><circle class="outline" cx="0" cy="0" r="25" fill="#ECB5C9" stroke="#da7298" stroke-width="2px"/><text text-anchor="middle" pointer-events="none" font-family="sans-serif" dy="1.5625" font-size="25" fill="#604A0E"/><text text-anchor="middle" pointer-events="none" y="5" font-size="10px" fill="#604A0E" font-family="sans-serif"> 头孢氨苄…</text></g><g class="node" transform="translate(-24.5620092707006,119.84420622487791)"><circle class="outline" cx="0" cy="0" r="25" fill="#ECB5C9" stroke="#da7298" stroke-width="2px"/><text text-anchor="middle" pointer-events="none" font-family="sans-serif" dy="1.5625" font-size="25" fill="#604A0E"/><text text-anchor="middle" pointer-events="none" y="5" font-size="10px" fill="#604A0E" font-family="sans-serif"> 托西酸舒…</text></g><g class="node" transform="translate(-70.27635639406058,-114.28625658743215)"><circle class="outline" cx="0" cy="0" r="25" fill="#ECB5C9" stroke="#da7298" stroke-width="2px"/><text text-anchor="middle" pointer-events="none" font-family="sans-serif" dy="1.5625" font-size="25" fill="#604A0E"/><text text-anchor="middle" pointer-events="none" y="5" font-size="10px" fill="#604A0E" font-family="sans-serif"> 注射用磺…</text></g><g class="node" transform="translate(-94.72788549586777,-37.41356707039532)"><circle class="outline" cx="0" cy="0" r="25" fill="#ECB5C9" stroke="#da7298" stroke-width="2px"/><text text-anchor="middle" pointer-events="none" font-family="sans-serif" dy="1.5625" font-size="25" fill="#604A0E"/><text text-anchor="middle" pointer-events="none" y="5" font-size="10px" fill="#604A0E" font-family="sans-serif"> 头孢泊肟…</text></g><g class="node" transform="translate(-59.06650967278699,196.9214575088204)"><circle class="outline" cx="0" cy="0" r="25" fill="#ECB5C9" stroke="#da7298" stroke-width="2px"/><text text-anchor="middle" pointer-events="none" font-family="sans-serif" dy="1.5625" font-size="25" fill="#604A0E"/><text text-anchor="middle" pointer-events="none" y="5" font-size="10px" fill="#604A0E" font-family="sans-serif"> 注射用盐…</text></g><g class="node" transform="translate(-98.63784151057916,22.441631243493536)"><circle class="outline" cx="0" cy="0" r="25" fill="#F79767" stroke="#f36924" stroke-width="2px"/><text text-anchor="middle" pointer-events="none" font-family="sans-serif" dy="1.5625" font-size="25" fill="#FFFFFF"/><text text-anchor="middle" pointer-events="none" y="5" font-size="10px" fill="#FFFFFF" font-family="sans-serif"> 痰液中细…</text></g><g class="node" transform="translate(435.439091696231,-141.1326504858219)"><circle class="outline" cx="0" cy="0" r="25" fill="#F79767" stroke="#f36924" stroke-width="2px"/><text text-anchor="middle" pointer-events="none" font-family="sans-serif" dy="1.5625" font-size="25" fill="#FFFFFF"/><text text-anchor="middle" pointer-events="none" y="5" font-size="10px" fill="#FFFFFF" font-family="sans-serif"> 胸部平片</text></g><g class="node" transform="translate(-2.9754934335652603,175.7949876505861)"><circle class="outline" cx="0" cy="0" r="25" fill="#F79767" stroke="#f36924" stroke-width="2px"/><text text-anchor="middle" pointer-events="none" font-family="sans-serif" dy="1.5625" font-size="25" fill="#FFFFFF"/><text text-anchor="middle" pointer-events="none" y="5" font-size="10px" fill="#FFFFFF" font-family="sans-serif"> 痰液中寄…</text></g><g class="node" transform="translate(559.7512440436432,96.09085478966709)"><circle class="outline" cx="0" cy="0" r="25" fill="#F16667" stroke="#eb2728" stroke-width="2px"/><text text-anchor="middle" pointer-events="none" font-family="sans-serif" dy="1.5625" font-size="25" fill="#FFFFFF"/><text text-anchor="middle" pointer-events="none" y="5" font-size="10px" fill="#FFFFFF" font-family="sans-serif"> 呼吸内科</text></g><g class="node" transform="translate(155.77921510212062,207.08390261619812)"><circle class="outline" cx="0" cy="0" r="25" fill="#D9C8AE" stroke="#c0a378" stroke-width="2px"/><text text-anchor="middle" pointer-events="none" font-family="sans-serif" dy="1.5625" font-size="25" fill="#604A0E"/><text text-anchor="middle" pointer-events="none" y="5" font-size="10px" fill="#604A0E" font-family="sans-serif"> 嗜酸性粒…</text></g><g class="node" transform="translate(52.79581013839676,267.91294332477366)"><circle class="outline" cx="0" cy="0" r="25" fill="#D9C8AE" stroke="#c0a378" stroke-width="2px"/><text text-anchor="middle" pointer-events="none" font-family="sans-serif" dy="1.5625" font-size="25" fill="#604A0E"/><text text-anchor="middle" pointer-events="none" y="5" font-size="10px" fill="#604A0E" font-family="sans-serif"> 咯血伴…</text></g><g class="node" transform="translate(149.3102293641053,144.96932995654316)"><circle class="outline" cx="0" cy="0" r="25" fill="#D9C8AE" stroke="#c0a378" stroke-width="2px"/><text text-anchor="middle" pointer-events="none" font-family="sans-serif" dy="1.5625" font-size="25" fill="#604A0E"/><text text-anchor="middle" pointer-events="none" y="5" font-size="10px" fill="#604A0E" font-family="sans-serif"> 胸闷憋气</text></g><g class="node" transform="translate(454.31758030680476,170.37992248175672)"><circle class="outline" cx="0" cy="0" r="25" fill="#D9C8AE" stroke="#c0a378" stroke-width="2px"/><text text-anchor="middle" pointer-events="none" font-family="sans-serif" dy="1.5625" font-size="25" fill="#604A0E"/><text text-anchor="middle" pointer-events="none" y="5" font-size="10px" fill="#604A0E" font-family="sans-serif"> 乏力</text></g><g class="node" transform="translate(101.93676968636942,233.49079353440334)"><circle class="outline" cx="0" cy="0" r="25" fill="#D9C8AE" stroke="#c0a378" stroke-width="2px"/><text text-anchor="middle" pointer-events="none" font-family="sans-serif" dy="1.5625" font-size="25" fill="#604A0E"/><text text-anchor="middle" pointer-events="none" y="5" font-size="10px" fill="#604A0E" font-family="sans-serif"> 咽部异…</text></g><g class="node" transform="translate(251.87999022601142,82.95632591383311)"><circle class="outline" cx="0" cy="0" r="25" fill="#D9C8AE" stroke="#c0a378" stroke-width="2px"/><text text-anchor="middle" pointer-events="none" font-family="sans-serif" dy="1.5625" font-size="25" fill="#604A0E"/><text text-anchor="middle" pointer-events="none" y="5" font-size="10px" fill="#604A0E" font-family="sans-serif"> 胸闷</text></g><g class="node" transform="translate(-10.053865577101224,243.28687265291768)"><circle class="outline" cx="0" cy="0" r="32.5" fill="#57C7E3" stroke="#23b3d7" stroke-width="2px"/><text text-anchor="middle" pointer-events="none" font-family="sans-serif" dy="2.03125" font-size="32.5" fill="#FFFFFF"/><text text-anchor="middle" pointer-events="none" y="5" font-size="10px" fill="#FFFFFF" font-family="sans-serif"> 胆道蛔虫病</text></g><g class="node" transform="translate(-88.160939951948,81.48802278475908)"><circle class="outline" cx="0" cy="0" r="25" fill="#ECB5C9" stroke="#da7298" stroke-width="2px"/><text text-anchor="middle" pointer-events="none" font-family="sans-serif" dy="1.5625" font-size="25" fill="#604A0E"/><text text-anchor="middle" pointer-events="none" y="5" font-size="10px" fill="#604A0E" font-family="sans-serif"> 托西酸舒…</text></g><g class="node" transform="translate(215.69593044021212,204.23374980772118)"><circle class="outline" cx="0" cy="0" r="25" fill="#ECB5C9" stroke="#da7298" stroke-width="2px"/><text text-anchor="middle" pointer-events="none" font-family="sans-serif" dy="1.5625" font-size="25" fill="#604A0E"/><text text-anchor="middle" pointer-events="none" y="5" font-size="10px" fill="#604A0E" font-family="sans-serif"> 注射用盐…</text></g><g class="node" transform="translate(-80.70793823086152,140.97477694307676)"><circle class="outline" cx="0" cy="0" r="25" fill="#ECB5C9" stroke="#da7298" stroke-width="2px"/><text text-anchor="middle" pointer-events="none" font-family="sans-serif" dy="1.5625" font-size="25" fill="#604A0E"/><text text-anchor="middle" pointer-events="none" y="5" font-size="10px" fill="#604A0E" font-family="sans-serif"> 注射用磺…</text></g><g class="node" transform="translate(315.16978122364543,37.48534387139898)"><circle class="outline" cx="0" cy="0" r="25" fill="#ECB5C9" stroke="#da7298" stroke-width="2px"/><text text-anchor="middle" pointer-events="none" font-family="sans-serif" dy="1.5625" font-size="25" fill="#604A0E"/><text text-anchor="middle" pointer-events="none" y="5" font-size="10px" fill="#604A0E" font-family="sans-serif"> 头孢氨苄…</text></g><g class="node" transform="translate(317.4546280018613,-45.40256551696216)"><circle class="outline" cx="0" cy="0" r="25" fill="#ECB5C9" stroke="#da7298" stroke-width="2px"/><text text-anchor="middle" pointer-events="none" font-family="sans-serif" dy="1.5625" font-size="25" fill="#604A0E"/><text text-anchor="middle" pointer-events="none" y="5" font-size="10px" fill="#604A0E" font-family="sans-serif"> 头孢泊肟…</text></g><g class="node" transform="translate(271.07118759416744,-7.395249526849392)"><circle class="outline" cx="0" cy="0" r="25" fill="#F79767" stroke="#f36924" stroke-width="2px"/><text text-anchor="middle" pointer-events="none" font-family="sans-serif" dy="1.5625" font-size="25" fill="#FFFFFF"/><text text-anchor="middle" pointer-events="none" y="5" font-size="10px" fill="#FFFFFF" font-family="sans-serif"> 痰液中寄…</text></g><g class="node" transform="translate(302.0382352889627,-122.44631940737678)"><circle class="outline" cx="0" cy="0" r="25" fill="#F79767" stroke="#f36924" stroke-width="2px"/><text text-anchor="middle" pointer-events="none" font-family="sans-serif" dy="1.5625" font-size="25" fill="#FFFFFF"/><text text-anchor="middle" pointer-events="none" y="5" font-size="10px" fill="#FFFFFF" font-family="sans-serif"> 痰液中细…</text></g><g class="node" transform="translate(472.8620303592613,-94.35774176203462)"><circle class="outline" cx="0" cy="0" r="25" fill="#F79767" stroke="#f36924" stroke-width="2px"/><text text-anchor="middle" pointer-events="none" font-family="sans-serif" dy="1.5625" font-size="25" fill="#FFFFFF"/><text text-anchor="middle" pointer-events="none" y="5" font-size="10px" fill="#FFFFFF" font-family="sans-serif"> 胸部平片</text></g><g class="node" transform="translate(573.5378022097804,-6.120697691808377)"><circle class="outline" cx="0" cy="0" r="25" fill="#F16667" stroke="#eb2728" stroke-width="2px"/><text text-anchor="middle" pointer-events="none" font-family="sans-serif" dy="1.5625" font-size="25" fill="#FFFFFF"/><text text-anchor="middle" pointer-events="none" y="5" font-size="10px" fill="#FFFFFF" font-family="sans-serif"> 呼吸内科</text></g><g class="node" transform="translate(174.44959224781235,264.08565951018846)"><circle class="outline" cx="0" cy="0" r="25" fill="#D9C8AE" stroke="#c0a378" stroke-width="2px"/><text text-anchor="middle" pointer-events="none" font-family="sans-serif" dy="1.5625" font-size="25" fill="#604A0E"/><text text-anchor="middle" pointer-events="none" y="5" font-size="10px" fill="#604A0E" font-family="sans-serif"> 胸闷</text></g><g class="node" transform="translate(162.54084098957426,-106.0215038622067)"><circle class="outline" cx="0" cy="0" r="25" fill="#D9C8AE" stroke="#c0a378" stroke-width="2px"/><text text-anchor="middle" pointer-events="none" font-family="sans-serif" dy="1.5625" font-size="25" fill="#604A0E"/><text text-anchor="middle" pointer-events="none" y="5" font-size="10px" fill="#604A0E" font-family="sans-serif"> 咯血伴…</text></g><g class="node" transform="translate(396.2834189013414,156.09694995478606)"><circle class="outline" cx="0" cy="0" r="25" fill="#D9C8AE" stroke="#c0a378" stroke-width="2px"/><text text-anchor="middle" pointer-events="none" font-family="sans-serif" dy="1.5625" font-size="25" fill="#604A0E"/><text text-anchor="middle" pointer-events="none" y="5" font-size="10px" fill="#604A0E" font-family="sans-serif"> 乏力</text></g><g class="node" transform="translate(212.50558116219747,144.3282552322234)"><circle class="outline" cx="0" cy="0" r="25" fill="#D9C8AE" stroke="#c0a378" stroke-width="2px"/><text text-anchor="middle" pointer-events="none" font-family="sans-serif" dy="1.5625" font-size="25" fill="#604A0E"/><text text-anchor="middle" pointer-events="none" y="5" font-size="10px" fill="#604A0E" font-family="sans-serif"> 咽部异…</text></g><g class="node" transform="translate(225.0728340021946,-206.88338368009565)"><circle class="outline" cx="0" cy="0" r="25" fill="#D9C8AE" stroke="#c0a378" stroke-width="2px"/><text text-anchor="middle" pointer-events="none" font-family="sans-serif" dy="1.5625" font-size="25" fill="#604A0E"/><text text-anchor="middle" pointer-events="none" y="5" font-size="10px" fill="#604A0E" font-family="sans-serif"> 嗜酸性粒…</text></g><g class="node" transform="translate(102.7980635820638,-111.48457065292608)"><circle class="outline" cx="0" cy="0" r="25" fill="#D9C8AE" stroke="#c0a378" stroke-width="2px"/><text text-anchor="middle" pointer-events="none" font-family="sans-serif" dy="1.5625" font-size="25" fill="#604A0E"/><text text-anchor="middle" pointer-events="none" y="5" font-size="10px" fill="#604A0E" font-family="sans-serif"> 胸闷憋气</text></g><g class="node" transform="translate(221.06629582876593,-139.5620947861522)"><circle class="outline" cx="0" cy="0" r="32.5" fill="#57C7E3" stroke="#23b3d7" stroke-width="2px"/><text text-anchor="middle" pointer-events="none" font-family="sans-serif" dy="2.03125" font-size="32.5" fill="#FFFFFF"/><text text-anchor="middle" pointer-events="none" y="5" font-size="10px" fill="#FFFFFF" font-family="sans-serif"> 胆道蛔虫病</text></g><g class="node" transform="translate(-40.19619575585135,-62.39303690385373)"><circle class="outline" cx="0" cy="0" r="25" fill="#ECB5C9" stroke="#da7298" stroke-width="2px"/><text text-anchor="middle" pointer-events="none" font-family="sans-serif" dy="1.5625" font-size="25" fill="#604A0E"/><text text-anchor="middle" pointer-events="none" y="5" font-size="10px" fill="#604A0E" font-family="sans-serif"> 头孢氨苄…</text></g><g class="node" transform="translate(108.1255526324981,-229.60297367049876)"><circle class="outline" cx="0" cy="0" r="25" fill="#ECB5C9" stroke="#da7298" stroke-width="2px"/><text text-anchor="middle" pointer-events="none" font-family="sans-serif" dy="1.5625" font-size="25" fill="#604A0E"/><text text-anchor="middle" pointer-events="none" y="5" font-size="10px" fill="#604A0E" font-family="sans-serif"> 注射用盐…</text></g><g class="node" transform="translate(158.95427780587005,-165.89323539149615)"><circle class="outline" cx="0" cy="0" r="25" fill="#ECB5C9" stroke="#da7298" stroke-width="2px"/><text text-anchor="middle" pointer-events="none" font-family="sans-serif" dy="1.5625" font-size="25" fill="#604A0E"/><text text-anchor="middle" pointer-events="none" y="5" font-size="10px" fill="#604A0E" font-family="sans-serif"> 头孢泊肟…</text></g><g class="node" transform="translate(16.901058135068673,-37.45274200197937)"><circle class="outline" cx="0" cy="0" r="25" fill="#ECB5C9" stroke="#da7298" stroke-width="2px"/><text text-anchor="middle" pointer-events="none" font-family="sans-serif" dy="1.5625" font-size="25" fill="#604A0E"/><text text-anchor="middle" pointer-events="none" y="5" font-size="10px" fill="#604A0E" font-family="sans-serif"> 托西酸舒…</text></g><g class="node" transform="translate(-16.151401936027355,-174.11428486462844)"><circle class="outline" cx="0" cy="0" r="25" fill="#ECB5C9" stroke="#da7298" stroke-width="2px"/><text text-anchor="middle" pointer-events="none" font-family="sans-serif" dy="1.5625" font-size="25" fill="#604A0E"/><text text-anchor="middle" pointer-events="none" y="5" font-size="10px" fill="#604A0E" font-family="sans-serif"> 注射用磺…</text></g><g class="node" transform="translate(277.12727095314904,-177.01135459909716)"><circle class="outline" cx="0" cy="0" r="25" fill="#F79767" stroke="#f36924" stroke-width="2px"/><text text-anchor="middle" pointer-events="none" font-family="sans-serif" dy="1.5625" font-size="25" fill="#FFFFFF"/><text text-anchor="middle" pointer-events="none" y="5" font-size="10px" fill="#FFFFFF" font-family="sans-serif"> 痰液中细…</text></g><g class="node" transform="translate(413.7614344185733,-85.40460265510015)"><circle class="outline" cx="0" cy="0" r="25" fill="#F79767" stroke="#f36924" stroke-width="2px"/><text text-anchor="middle" pointer-events="none" font-family="sans-serif" dy="1.5625" font-size="25" fill="#FFFFFF"/><text text-anchor="middle" pointer-events="none" y="5" font-size="10px" fill="#FFFFFF" font-family="sans-serif"> 胸部平片</text></g><g class="node" transform="translate(167.96159743779467,-225.17109777355958)"><circle class="outline" cx="0" cy="0" r="25" fill="#F79767" stroke="#f36924" stroke-width="2px"/><text text-anchor="middle" pointer-events="none" font-family="sans-serif" dy="1.5625" font-size="25" fill="#FFFFFF"/><text text-anchor="middle" pointer-events="none" y="5" font-size="10px" fill="#FFFFFF" font-family="sans-serif"> 痰液中寄…</text></g><g class="node" transform="translate(537.0394552855577,41.047359075487)"><circle class="outline" cx="0" cy="0" r="25" fill="#F16667" stroke="#eb2728" stroke-width="2px"/><text text-anchor="middle" pointer-events="none" font-family="sans-serif" dy="1.5625" font-size="25" fill="#FFFFFF"/><text text-anchor="middle" pointer-events="none" y="5" font-size="10px" fill="#FFFFFF" font-family="sans-serif"> 呼吸内科</text></g><g class="node" transform="translate(-181.54135583390308,63.52304834598995)"><circle class="outline" cx="0" cy="0" r="25" fill="#D9C8AE" stroke="#c0a378" stroke-width="2px"/><text text-anchor="middle" pointer-events="none" font-family="sans-serif" dy="1.5625" font-size="25" fill="#604A0E"/><text text-anchor="middle" pointer-events="none" y="5" font-size="10px" fill="#604A0E" font-family="sans-serif"> 嗜酸性粒…</text></g><g class="node" transform="translate(412.85754357973383,213.58685930555308)"><circle class="outline" cx="0" cy="0" r="25" fill="#D9C8AE" stroke="#c0a378" stroke-width="2px"/><text text-anchor="middle" pointer-events="none" font-family="sans-serif" dy="1.5625" font-size="25" fill="#604A0E"/><text text-anchor="middle" pointer-events="none" y="5" font-size="10px" fill="#604A0E" font-family="sans-serif"> 乏力</text></g><g class="node" transform="translate(308.32906237740764,103.21637743012668)"><circle class="outline" cx="0" cy="0" r="25" fill="#D9C8AE" stroke="#c0a378" stroke-width="2px"/><text text-anchor="middle" pointer-events="none" font-family="sans-serif" dy="1.5625" font-size="25" fill="#604A0E"/><text text-anchor="middle" pointer-events="none" y="5" font-size="10px" fill="#604A0E" font-family="sans-serif"> 胸闷憋气</text></g><g class="node" transform="translate(-41.401360556562224,-0.6802783712208527)"><circle class="outline" cx="0" cy="0" r="25" fill="#D9C8AE" stroke="#c0a378" stroke-width="2px"/><text text-anchor="middle" pointer-events="none" font-family="sans-serif" dy="1.5625" font-size="25" fill="#604A0E"/><text text-anchor="middle" pointer-events="none" y="5" font-size="10px" fill="#604A0E" font-family="sans-serif"> 咯血伴…</text></g><g class="node" transform="translate(95.47499841059857,-171.0184180311096)"><circle class="outline" cx="0" cy="0" r="25" fill="#D9C8AE" stroke="#c0a378" stroke-width="2px"/><text text-anchor="middle" pointer-events="none" font-family="sans-serif" dy="1.5625" font-size="25" fill="#604A0E"/><text text-anchor="middle" pointer-events="none" y="5" font-size="10px" fill="#604A0E" font-family="sans-serif"> 胸闷</text></g><g class="node" transform="translate(39.70683961640275,-148.8358489913873)"><circle class="outline" cx="0" cy="0" r="25" fill="#D9C8AE" stroke="#c0a378" stroke-width="2px"/><text text-anchor="middle" pointer-events="none" font-family="sans-serif" dy="1.5625" font-size="25" fill="#604A0E"/><text text-anchor="middle" pointer-events="none" y="5" font-size="10px" fill="#604A0E" font-family="sans-serif"> 咽部异…</text></g><g class="node" transform="translate(256.0204731487117,-73.2344194795783)"><circle class="outline" cx="0" cy="0" r="32.5" fill="#57C7E3" stroke="#23b3d7" stroke-width="2px"/><text text-anchor="middle" pointer-events="none" font-family="sans-serif" dy="2.03125" font-size="32.5" fill="#FFFFFF"/><text text-anchor="middle" pointer-events="none" y="5" font-size="10px" fill="#FFFFFF" font-family="sans-serif"> 胆道蛔虫病</text></g><g class="node" transform="translate(44.58201905487833,-208.6191771251469)"><circle class="outline" cx="0" cy="0" r="25" fill="#ECB5C9" stroke="#da7298" stroke-width="2px"/><text text-anchor="middle" pointer-events="none" font-family="sans-serif" dy="1.5625" font-size="25" fill="#604A0E"/><text text-anchor="middle" pointer-events="none" y="5" font-size="10px" fill="#604A0E" font-family="sans-serif"> 注射用盐…</text></g><g class="node" transform="translate(274.98050586099674,213.356655683602)"><circle class="outline" cx="0" cy="0" r="25" fill="#ECB5C9" stroke="#da7298" stroke-width="2px"/><text text-anchor="middle" pointer-events="none" font-family="sans-serif" dy="1.5625" font-size="25" fill="#604A0E"/><text text-anchor="middle" pointer-events="none" y="5" font-size="10px" fill="#604A0E" font-family="sans-serif"> 注射用磺…</text></g><g class="node" transform="translate(-10.292493632465728,-114.41363375907173)"><circle class="outline" cx="0" cy="0" r="25" fill="#ECB5C9" stroke="#da7298" stroke-width="2px"/><text text-anchor="middle" pointer-events="none" font-family="sans-serif" dy="1.5625" font-size="25" fill="#604A0E"/><text text-anchor="middle" pointer-events="none" y="5" font-size="10px" fill="#604A0E" font-family="sans-serif"> 头孢泊肟…</text></g><g class="node" transform="translate(15.320345065758438,22.520492140087264)"><circle class="outline" cx="0" cy="0" r="25" fill="#ECB5C9" stroke="#da7298" stroke-width="2px"/><text text-anchor="middle" pointer-events="none" font-family="sans-serif" dy="1.5625" font-size="25" fill="#604A0E"/><text text-anchor="middle" pointer-events="none" y="5" font-size="10px" fill="#604A0E" font-family="sans-serif"> 托西酸舒…</text></g><g class="node" transform="translate(47.533481243056976,208.14246958057691)"><circle class="outline" cx="0" cy="0" r="25" fill="#ECB5C9" stroke="#da7298" stroke-width="2px"/><text text-anchor="middle" pointer-events="none" font-family="sans-serif" dy="1.5625" font-size="25" fill="#604A0E"/><text text-anchor="middle" pointer-events="none" y="5" font-size="10px" fill="#604A0E" font-family="sans-serif"> 头孢氨苄…</text></g><g class="node" transform="translate(451.05724428709175,-38.6109626429373)"><circle class="outline" cx="0" cy="0" r="25" fill="#F79767" stroke="#f36924" stroke-width="2px"/><text text-anchor="middle" pointer-events="none" font-family="sans-serif" dy="1.5625" font-size="25" fill="#FFFFFF"/><text text-anchor="middle" pointer-events="none" y="5" font-size="10px" fill="#FFFFFF" font-family="sans-serif"> 胸部平片</text></g><g class="node" transform="translate(234.34686695441272,261.24047123637496)"><circle class="outline" cx="0" cy="0" r="25" fill="#F79767" stroke="#f36924" stroke-width="2px"/><text text-anchor="middle" pointer-events="none" font-family="sans-serif" dy="1.5625" font-size="25" fill="#FFFFFF"/><text text-anchor="middle" pointer-events="none" y="5" font-size="10px" fill="#FFFFFF" font-family="sans-serif"> 痰液中细…</text></g><g class="node" transform="translate(33.55330171224142,82.75953498106877)"><circle class="outline" cx="0" cy="0" r="25" fill="#F79767" stroke="#f36924" stroke-width="2px"/><text text-anchor="middle" pointer-events="none" font-family="sans-serif" dy="1.5625" font-size="25" fill="#FFFFFF"/><text text-anchor="middle" pointer-events="none" y="5" font-size="10px" fill="#FFFFFF" font-family="sans-serif"> 痰液中寄…</text></g><g class="node" transform="translate(596.0916087339617,48.93483464858088)"><circle class="outline" cx="0" cy="0" r="25" fill="#F16667" stroke="#eb2728" stroke-width="2px"/><text text-anchor="middle" pointer-events="none" font-family="sans-serif" dy="1.5625" font-size="25" fill="#FFFFFF"/><text text-anchor="middle" pointer-events="none" y="5" font-size="10px" fill="#FFFFFF" font-family="sans-serif"> 呼吸内科</text></g><g class="node" transform="translate(47.06048951493033,-89.28566838142595)"><circle class="outline" cx="0" cy="0" r="25" fill="#D9C8AE" stroke="#c0a378" stroke-width="2px"/><text text-anchor="middle" pointer-events="none" font-family="sans-serif" dy="1.5625" font-size="25" fill="#604A0E"/><text text-anchor="middle" pointer-events="none" y="5" font-size="10px" fill="#604A0E" font-family="sans-serif"> 胸闷憋气</text></g><g class="node" transform="translate(46.17333521133497,141.3775121904541)"><circle class="outline" cx="0" cy="0" r="25" fill="#D9C8AE" stroke="#c0a378" stroke-width="2px"/><text text-anchor="middle" pointer-events="none" font-family="sans-serif" dy="1.5625" font-size="25" fill="#604A0E"/><text text-anchor="middle" pointer-events="none" y="5" font-size="10px" fill="#604A0E" font-family="sans-serif"> 胸闷</text></g><g class="node" transform="translate(437.67933368198,112.8696668895002)"><circle class="outline" cx="0" cy="0" r="25" fill="#D9C8AE" stroke="#c0a378" stroke-width="2px"/><text text-anchor="middle" pointer-events="none" font-family="sans-serif" dy="1.5625" font-size="25" fill="#604A0E"/><text text-anchor="middle" pointer-events="none" y="5" font-size="10px" fill="#604A0E" font-family="sans-serif"> 乏力</text></g><g class="node" transform="translate(120.58659488933816,290.4664137116601)"><circle class="outline" cx="0" cy="0" r="25" fill="#D9C8AE" stroke="#c0a378" stroke-width="2px"/><text text-anchor="middle" pointer-events="none" font-family="sans-serif" dy="1.5625" font-size="25" fill="#604A0E"/><text text-anchor="middle" pointer-events="none" y="5" font-size="10px" fill="#604A0E" font-family="sans-serif"> 咯血伴…</text></g><g class="node" transform="translate(96.68317456464479,173.74393020199815)"><circle class="outline" cx="0" cy="0" r="25" fill="#D9C8AE" stroke="#c0a378" stroke-width="2px"/><text text-anchor="middle" pointer-events="none" font-family="sans-serif" dy="1.5625" font-size="25" fill="#604A0E"/><text text-anchor="middle" pointer-events="none" y="5" font-size="10px" fill="#604A0E" font-family="sans-serif"> 咽部异…</text></g><g class="node" transform="translate(275.4326202407407,153.38909876706035)"><circle class="outline" cx="0" cy="0" r="25" fill="#D9C8AE" stroke="#c0a378" stroke-width="2px"/><text text-anchor="middle" pointer-events="none" font-family="sans-serif" dy="1.5625" font-size="25" fill="#604A0E"/><text text-anchor="middle" pointer-events="none" y="5" font-size="10px" fill="#604A0E" font-family="sans-serif"> 嗜酸性粒…</text></g></g></svg>